<svg width="40" height="40" viewBox="0 0 40 40" fill="none" xmlns="http://www.w3.org/2000/svg">
<path d="M19.9814 25.0136C18.9702 25.0136 17.959 24.8396 16.9899 24.4335L6.7095 20.2568V27.9721C6.7095 29.6544 7.51002 31.1046 8.64761 31.5687L12.9452 33.309C17.6219 35.2233 22.6357 35.2233 27.3125 33.309L31.61 31.5687C32.7476 31.1046 33.5482 29.6544 33.5482 27.9721V20.1407L23.0149 24.4335C22.0037 24.8396 20.9926 25.0136 19.9814 25.0136Z" fill="#4C8FCC"/>
<path d="M39.152 12.3093L22.5516 5.52209C20.9084 4.82597 19.1389 4.82597 17.4536 5.52209L0.853191 12.3093C-0.284397 12.7733 -0.284397 15.0357 0.853191 15.4998L17.4536 22.287C19.0967 22.9831 20.8663 22.9831 22.5516 22.287L35.2941 16.7647V26.9278C34.9992 27.1018 34.7464 27.5079 34.7464 27.9719V28.8421C34.7464 29.3642 34.9992 29.7702 35.2941 29.8863L34.3251 32.9608C34.2408 33.3088 34.3672 33.6569 34.62 33.7149L35.4205 33.8309C35.5891 33.8309 37.888 33.8309 38.0565 33.8309L38.8571 33.7149C39.1099 33.6569 39.2784 33.3088 39.152 32.9608L38.1829 29.8863C38.52 29.7122 38.7307 29.3062 38.7307 28.8421V27.9719C38.7307 27.5079 38.52 27.1018 38.1829 26.9278V16.0219L39.1099 15.4998C40.2896 15.0357 40.2896 12.7733 39.152 12.3093Z" fill="#4C8FCC"/>
</svg>
