<svg width="40" height="40" viewBox="0 0 40 40" fill="none" xmlns="http://www.w3.org/2000/svg">
<path d="M30.0643 22.3981C29.264 21.682 28.211 21.2187 27.1579 21.1766L17.3015 20.4605C16.8381 20.4184 16.4169 20.5869 16.08 20.8817C15.743 21.1766 15.5324 21.5978 15.4902 22.019C15.4481 22.7772 15.9115 23.4933 16.6275 23.7039L17.0066 23.8302C19.0706 24.5042 21.2188 25.0097 23.367 25.3045L25.2203 25.5572C25.5152 25.5994 25.7679 25.7678 25.9364 25.9785C26.1049 26.2312 26.1891 26.526 26.147 26.8209C26.1049 27.1157 25.9364 27.3685 25.7258 27.5791C25.4731 27.7476 25.1782 27.8318 24.8834 27.7897L23.03 27.537C20.7555 27.2 18.4809 26.6945 16.2906 25.9785L15.9115 25.8521C14.2266 25.3045 13.0893 23.6618 13.2157 21.8927C13.2157 21.7663 13.2578 21.6399 13.2578 21.5136L7.36077 18.9441C6.68682 18.6493 5.84439 18.7756 5.29681 19.239C4.87559 19.6181 4.62286 20.1235 4.62286 20.6711C4.62286 21.2187 4.83347 21.7663 5.21257 22.1454L16.2906 32.8443C17.3436 33.8552 18.6915 34.4028 20.1236 34.4028L28.4216 34.487L35.3717 27.537L30.0643 22.3981Z" fill="#4C8FCC"/>
<path d="M39.7102 31.7914L36.9723 29.0535L30.1065 35.9614L32.8444 38.6993C33.2235 39.0784 33.8132 39.0784 34.1923 38.6993L39.7524 33.1393C40.0893 32.7602 40.0893 32.1705 39.7102 31.7914Z" fill="#4C8FCC"/>
<path d="M12.8365 17.8069L22.6929 18.523C23.1563 18.5651 23.5775 18.3966 23.9145 18.1018C24.2514 17.8069 24.4621 17.3857 24.4621 16.9645C24.5042 16.2063 24.0408 15.4902 23.3248 15.2796L22.9457 15.1532C20.8817 14.4793 18.7335 13.9738 16.5853 13.679L14.732 13.4263C14.4371 13.3841 14.1844 13.2156 14.0159 13.005C13.8474 12.7523 13.7632 12.4575 13.8053 12.1626C13.8474 11.8678 14.0159 11.615 14.2265 11.4044C14.4792 11.2359 14.7741 11.1517 15.0689 11.1938L16.9223 11.4465C19.1969 11.7835 21.4714 12.289 23.6617 13.005L24.0408 13.1314C25.7257 13.679 26.863 15.3217 26.7366 17.0908C26.7366 17.2172 26.6945 17.3436 26.6945 17.4699L32.5915 20.0394C33.2655 20.3342 34.1079 20.2078 34.6555 19.7445C35.0767 19.3654 35.3294 18.8599 35.3294 18.3124C35.3294 17.7648 35.1188 17.2172 34.7397 16.8381L23.6196 6.09709C22.5666 5.08617 21.2187 4.53859 19.7866 4.53859L11.4886 4.45435L4.4964 11.4044L9.93009 16.5854C10.7304 17.3014 11.7834 17.7648 12.8365 17.8069Z" fill="#4C8FCC"/>
<path d="M7.15015 0.284321C6.77105 -0.0947737 6.18135 -0.0947737 5.80226 0.284321L0.284321 5.84438C-0.0947737 6.22347 -0.0947737 6.81318 0.284321 7.19227L3.02223 9.93018L9.88806 3.02223L7.15015 0.284321Z" fill="#4C8FCC"/>
</svg>
