<svg width="16" height="16" viewBox="0 0 16 16" fill="none" xmlns="http://www.w3.org/2000/svg">
<g clip-path="url(#clip0_691_442)">
<path d="M14 0H2C0.897 0 0 0.897 0 2V14C0 15.103 0.897 16 2 16H14C15.103 16 16 15.103 16 14V2C16 0.897 15.103 0 14 0Z" fill="#1976D2"/>
<path fill-rule="evenodd" clip-rule="evenodd" d="M13.5 8H11V6C11 5.448 11.448 5.5 12 5.5H13V3H11C10.2044 3 9.44129 3.31607 8.87868 3.87868C8.31607 4.44129 8 5.20435 8 6V8H6V10.5H8V16H11V10.5H12.5L13.5 8Z" fill="#FAFAFA"/>
</g>
<defs>
<clipPath id="clip0_691_442">
<rect width="16" height="16" fill="white"/>
</clipPath>
</defs>
</svg>
