<svg width="64" height="64" viewBox="0 0 64 64" fill="none" xmlns="http://www.w3.org/2000/svg">
<path d="M32.2402 63.5195C49.7807 63.5195 64 49.3002 64 31.7598C64 14.2193 49.7807 0 32.2402 0C14.6998 0 0.480469 14.2193 0.480469 31.7598C0.480469 49.3002 14.6998 63.5195 32.2402 63.5195Z" fill="#214472"/>
<path d="M19.4816 48.3141C19.2268 48.3347 18.9758 48.2485 18.7865 48.078C18.6217 47.9356 18.528 47.7258 18.5299 47.5085V20.0578C18.528 19.8386 18.6217 19.6306 18.7865 19.4883C18.9776 19.3196 19.2287 19.2353 19.4816 19.2522H29.4093C31.873 19.2091 34.3011 19.833 36.4387 21.0601C38.3947 22.1767 40.0134 23.8048 41.1188 25.7664C42.0124 27.5874 42.4621 29.5921 42.4321 31.6211C42.4359 32.9569 42.2541 34.2853 41.8907 35.5705C41.5328 36.8182 40.9614 37.9948 40.2008 39.0477C39.3933 40.1362 38.4022 41.0786 37.2743 41.828C35.9741 42.6898 34.5371 43.3268 33.0271 43.7128C32.332 43.7128 31.9348 43.5385 31.8168 43.1844C31.74 42.9802 31.7625 42.7498 31.8786 42.5662C32.0079 42.3676 32.214 42.2308 32.4482 42.1915C33.2332 41.9704 33.9994 41.6912 34.7432 41.3578C35.7306 40.9137 36.6336 40.3011 37.413 39.5498C38.3404 38.6505 39.0898 37.5845 39.6237 36.4079C40.2832 34.8867 40.5961 33.2398 40.5417 31.5836C40.553 29.9949 40.2495 28.4193 39.6518 26.9467C38.9774 25.3954 37.8963 24.0559 36.5231 23.0667C35.5039 22.3248 34.3685 21.7533 33.1657 21.3768C31.9517 20.9852 30.6852 20.7866 29.4112 20.7866H20.4558V47.471C20.4577 47.6958 20.3528 47.9075 20.1711 48.0406C19.9818 48.2092 19.7383 48.3085 19.4816 48.3141ZM24.4745 16.7754C24.2253 16.7848 23.9818 16.7117 23.7794 16.5675C23.5977 16.4438 23.4909 16.2377 23.4947 16.0185C23.4928 15.7937 23.5977 15.582 23.7794 15.449C23.9743 15.286 24.2216 15.2017 24.4745 15.2129H30.6702C32.2833 15.2204 33.8851 15.4546 35.4327 15.908C36.9165 16.3351 38.3441 16.9422 39.6799 17.7159C40.9558 18.4709 42.1249 19.3908 43.1572 20.455C44.1557 21.4779 44.9894 22.6508 45.6246 23.9322C46.8779 26.4409 47.5075 29.2137 47.4606 32.0183C47.4719 34.1616 47.1215 36.2918 46.4246 38.317C45.7651 40.2505 44.6991 42.0191 43.2958 43.5029C41.8157 45.0355 40.0265 46.2345 38.0462 47.0214C35.6893 47.9432 33.1713 48.3909 30.6421 48.3347H24.5026C24.2534 48.3385 24.0099 48.2635 23.8075 48.1193C23.6314 47.99 23.5265 47.7877 23.5228 47.5703V23.7355C23.5134 23.5032 23.6202 23.2821 23.8075 23.1454C24.008 22.9973 24.2534 22.9224 24.5026 22.9299C25.1153 22.9299 25.4206 23.2016 25.4206 23.7355V46.7628H30.6421C33.4617 46.8116 36.2495 46.1652 38.7638 44.8856C41.0682 43.7203 42.9192 41.8186 44.0209 39.4824C45.1019 37.1442 45.6302 34.5906 45.5646 32.0146C45.5702 29.7607 45.1525 27.5238 44.3337 25.4235C43.427 23.2091 41.9 21.3018 39.9403 19.9304C38.479 18.8382 36.8284 18.0251 35.073 17.5323C33.6453 17.1089 32.1671 16.8766 30.6796 16.8372L24.4745 16.7754Z" fill="white"/>
</svg>
