<svg width="40" height="40" viewBox="0 0 40 40" fill="none" xmlns="http://www.w3.org/2000/svg">
<g clip-path="url(#clip0_351_243)">
<path d="M29.633 17.7765C27.6382 17.6051 25.9969 16.1774 25.5081 14.2897H21.1719V25.7105H29.202C29.6657 23.1473 29.8153 20.4544 29.633 17.7765Z" fill="#4C8FCC"/>
<path d="M30.0371 10.7841C28.7504 10.7841 27.7035 11.8309 27.7035 13.1177C27.7035 14.4044 28.7503 15.4512 30.0371 15.4512C31.3239 15.4512 32.3707 14.4044 32.3707 13.1177C32.3707 11.8309 31.3238 10.7841 30.0371 10.7841Z" fill="#4C8FCC"/>
<path d="M9.85145 30.4835C11.7979 30.4835 13.3757 28.9056 13.3757 26.9592C13.3757 25.0128 11.7979 23.4349 9.85145 23.4349C7.90503 23.4349 6.32715 25.0128 6.32715 26.9592C6.32715 28.9056 7.90503 30.4835 9.85145 30.4835Z" fill="#4C8FCC"/>
<path d="M18.8281 0C16.1532 1.83812 13.9783 4.93734 12.4768 8.52594C12.0227 9.61148 11.6372 10.7576 11.3215 11.9459H18.8281V0Z" fill="#4C8FCC"/>
<path d="M10.3109 21.1109C12.9119 21.3137 15.0417 23.2184 15.5841 25.7105H18.8282V14.2897H10.8003C10.4014 16.4962 10.2334 18.8029 10.3109 21.1109Z" fill="#4C8FCC"/>
<path d="M18.8275 40V28.0541H15.6144C15.2876 29.7779 14.205 31.2365 12.7249 32.072C14.1881 35.4103 16.2334 38.2504 18.8275 40Z" fill="#4C8FCC"/>
<path d="M21.1719 40C23.9761 38.0754 26.2223 34.8028 27.7288 30.9675C28.0964 30.0318 28.4141 29.0574 28.6811 28.0541H21.1719V40Z" fill="#4C8FCC"/>
<path d="M29.9109 31.8245C28.7471 34.7873 27.1715 37.3053 25.2532 39.3015C31.1117 37.7109 35.9011 33.5252 38.3111 28.0542H31.0988C30.7802 29.3572 30.384 30.6201 29.9109 31.8245Z" fill="#4C8FCC"/>
<path d="M9.85001 32.8272C6.9886 32.8272 4.60047 30.7681 4.08594 28.0541H1.6886C4.0893 33.5039 8.85086 37.6786 14.6785 39.2831C12.9777 37.5188 11.5743 35.3513 10.4817 32.7927C10.2741 32.815 10.0634 32.8272 9.85001 32.8272Z" fill="#4C8FCC"/>
<path d="M31.9545 17.3819C32.164 20.1826 32.0324 23.0069 31.5792 25.7105H39.1707C39.7089 23.9008 39.9994 21.9845 39.9994 20.0001C39.9994 18.0156 39.7089 16.0993 39.1707 14.2897H34.5647C34.2071 15.6705 33.2326 16.8046 31.9545 17.3819Z" fill="#4C8FCC"/>
<path d="M7.97555 21.4003C7.88086 19.0032 8.03492 16.6008 8.4225 14.2897H0.828672C0.290469 16.0993 0 18.0156 0 20.0001C0 21.9845 0.290469 23.9008 0.828672 25.7105H4.11797C4.55789 23.6891 6.04227 22.0544 7.97555 21.4003Z" fill="#4C8FCC"/>
<path d="M30.0123 8.44097C30.0205 8.44089 30.0286 8.44034 30.0368 8.44034C32.2114 8.44034 34.0439 9.93198 34.5654 11.9458H38.3107C35.9004 6.47425 31.1104 2.28815 25.251 0.697998C25.7014 1.16706 26.134 1.66519 26.5473 2.19292C27.9529 3.98761 29.1158 6.08644 30.0123 8.44097Z" fill="#4C8FCC"/>
<path d="M21.1719 0V11.9459H25.5081C25.829 10.7066 26.647 9.66617 27.7351 9.04828C26.5784 6.09539 24.5756 2.32602 21.1719 0V0Z" fill="#4C8FCC"/>
<path d="M10.3148 7.62131C11.4534 4.89991 12.952 2.56913 14.7498 0.697876C8.89016 2.28803 4.09984 6.47412 1.68945 11.9459H8.90336C9.27156 10.4381 9.74352 8.9867 10.3148 7.62131Z" fill="#4C8FCC"/>
</g>
<defs>
<clipPath id="clip0_351_243">
<rect width="40" height="40" fill="white"/>
</clipPath>
</defs>
</svg>
