<svg width="16" height="16" viewBox="0 0 16 16" fill="none" xmlns="http://www.w3.org/2000/svg">
<g clip-path="url(#clip0_691_437)">
<path d="M0 5H3.578V16H0V5Z" fill="#1976D2"/>
<path d="M13.324 5.129C13.286 5.117 13.25 5.104 13.21 5.093C13.162 5.08213 13.1136 5.07279 13.065 5.065C12.8537 5.0218 12.6386 5.00003 12.423 5C10.337 5 9.014 6.517 8.578 7.103V5H5V16H8.578V10C8.578 10 11.282 6.234 12.423 9V16H16V8.577C15.9985 7.78714 15.735 7.02009 15.2507 6.39611C14.7664 5.77212 14.0888 5.32646 13.324 5.129Z" fill="#1976D2"/>
<path d="M1.75 3.5C2.7165 3.5 3.5 2.7165 3.5 1.75C3.5 0.783502 2.7165 0 1.75 0C0.783502 0 0 0.783502 0 1.75C0 2.7165 0.783502 3.5 1.75 3.5Z" fill="#1976D2"/>
</g>
<defs>
<clipPath id="clip0_691_437">
<rect width="16" height="16" fill="white"/>
</clipPath>
</defs>
</svg>
