<svg width="176" height="58" viewBox="0 0 176 58" fill="none" xmlns="http://www.w3.org/2000/svg">
<path d="M69.5102 14.2505H76.2029C82.2797 14.2505 86.2406 18.4119 86.2406 23.8345C86.2406 29.2868 82.2769 33.3916 76.2029 33.3916H69.5102V14.2505ZM76.2029 31.269C80.9594 31.269 83.716 27.9393 83.716 23.8372C83.716 19.7055 81.045 16.3758 76.2029 16.3758H71.9464V31.269H76.2029Z" fill="white"/>
<path d="M96.3971 25.787H92.4942V33.3916H90.058V14.2505H97.9246C101.504 14.2505 104.059 16.4892 104.059 20.0187C104.059 23.4619 101.654 25.3576 98.9825 25.5871L104.267 33.3916H101.391L96.3971 25.787ZM97.6291 16.3758H92.4914V23.6941H97.6291C99.9493 23.6941 101.532 22.1737 101.532 20.0214C101.532 17.8664 99.9493 16.3758 97.6291 16.3758Z" fill="white"/>
<path d="M120.229 29.1466H110.31L108.578 33.3945H105.877L113.744 14.2534H116.768L124.665 33.3945H121.964L120.229 29.1466ZM111.015 27.0213H119.497L115.271 16.376L111.015 27.0213Z" fill="white"/>
<path d="M127.215 14.2505H135.081C139.015 14.2505 141.216 16.8916 141.216 20.0187C141.216 23.1459 138.957 25.787 135.081 25.787H129.651V33.3916H127.215V14.2505ZM134.789 16.3758H129.651V23.6644H134.789C137.109 23.6644 138.691 22.171 138.691 20.0187C138.691 17.8664 137.109 16.3758 134.789 16.3758Z" fill="white"/>
<path d="M144.445 14.2505H157.273V16.3731H146.881V22.5437H157.065V24.6663H146.881V31.2663H157.273V33.3888H144.445V14.2505Z" fill="white"/>
<path d="M167.487 25.787H163.584V33.3916H161.148V14.2505H169.015C172.594 14.2505 175.149 16.4892 175.149 20.0187C175.149 23.4619 172.743 25.3576 170.072 25.5871L175.356 33.3916H172.481L167.487 25.787ZM168.719 16.3758H163.581V23.6941H168.719C171.039 23.6941 172.622 22.1737 172.622 20.0214C172.625 17.8664 171.039 16.3758 168.719 16.3758Z" fill="white"/>
<path d="M69.8831 42.2899C70.3168 42.7841 71.0266 43.2486 71.9879 43.2486C73.3745 43.2486 73.7695 42.4978 73.7695 41.9334C73.7695 41.0044 72.8579 40.7452 71.9188 40.4994C70.8554 40.2132 69.7229 39.9161 69.7229 38.6982C69.7229 37.6207 70.7145 36.9375 71.9381 36.9375C72.9408 36.9375 73.6976 37.2832 74.2252 37.8665L73.8413 38.2824C73.3551 37.7099 72.6673 37.4506 71.9078 37.4506C71.0073 37.4506 70.3306 37.9556 70.3306 38.6685C70.3306 39.449 71.1703 39.6785 72.0901 39.9242C73.1728 40.2213 74.3771 40.5562 74.3771 41.9037C74.3771 42.7436 73.7998 43.7643 71.9796 43.7643C70.8664 43.7643 70.0267 43.3296 69.5102 42.7165L69.8831 42.2899Z" fill="white"/>
<path d="M79.8821 37.5612H77.6752V37.0454H82.6747V37.5612H80.4677V43.6454H79.8821V37.5612Z" fill="white"/>
<path d="M89.8315 42.0224H86.2379L85.5612 43.6454H84.9148L87.677 37.0454H88.3951L91.1573 43.6454H90.511L89.8315 42.0224ZM86.423 41.5066H89.6519L88.0333 37.599L86.423 41.5066Z" fill="white"/>
<path d="M96.643 40.9128H95.1542V43.643H94.5769V37.043H97.096C98.2588 37.043 99.151 37.764 99.151 38.9711C99.151 40.1674 98.2809 40.8317 97.2783 40.8696L99.2311 43.6403H98.5323L96.643 40.9128ZM97.049 37.5615H95.1569V40.3997H97.049C97.9384 40.3997 98.5461 39.8056 98.5461 38.9738C98.5461 38.1448 97.9384 37.5615 97.049 37.5615Z" fill="white"/>
<path d="M104.639 37.5612H102.432V37.0454H107.432V37.5612H105.225V43.6454H104.639V37.5612Z" fill="white"/>
<path d="M111.056 37.0454H111.642V41.1015C111.642 42.4383 112.36 43.2484 113.686 43.2484C115.011 43.2484 115.73 42.4383 115.73 41.1015V37.0454H116.315V41.1123C116.315 42.7434 115.426 43.7642 113.686 43.7642C111.956 43.7642 111.056 42.7353 111.056 41.1123V37.0454Z" fill="white"/>
<path d="M120.428 37.0454H122.958C124.254 37.0454 124.991 37.9366 124.991 38.9736C124.991 40.0132 124.243 40.9017 122.958 40.9017H121.005V43.6427H120.428V37.0454ZM122.897 37.5612H121.005V40.3913H122.897C123.787 40.3913 124.386 39.808 124.386 38.9763C124.383 38.1445 123.787 37.5612 122.897 37.5612Z" fill="white"/>
<path d="M138.542 40.5077H134.261V43.643H133.684V37.043H134.261V39.9919H138.542V37.043H139.128V43.643H138.542V40.5077Z" fill="white"/>
<path d="M146.257 36.9375C148.229 36.9375 149.536 38.4228 149.536 40.3509C149.536 42.2791 148.229 43.7643 146.257 43.7643C144.274 43.7643 142.978 42.2791 142.978 40.3509C142.978 38.4228 144.274 36.9375 146.257 36.9375ZM146.257 37.4506C144.619 37.4506 143.586 38.6766 143.586 40.3482C143.586 42.0117 144.619 43.2459 146.257 43.2459C147.876 43.2459 148.928 42.009 148.928 40.3482C148.928 38.6793 147.876 37.4506 146.257 37.4506Z" fill="white"/>
<path d="M153.392 37.0454H153.977V41.1015C153.977 42.4383 154.695 43.2484 156.021 43.2484C157.347 43.2484 158.065 42.4383 158.065 41.1015V37.0454H158.651V41.1123C158.651 42.7434 157.761 43.7642 156.021 43.7642C154.292 43.7642 153.392 42.7353 153.392 41.1123V37.0454Z" fill="white"/>
<path d="M162.764 42.2899C163.197 42.7841 163.907 43.2486 164.869 43.2486C166.255 43.2486 166.65 42.4978 166.65 41.9334C166.65 41.0044 165.739 40.7452 164.799 40.4994C163.736 40.2132 162.604 39.9161 162.604 38.6982C162.604 37.6207 163.595 36.9375 164.819 36.9375C165.821 36.9375 166.578 37.2832 167.106 37.8665L166.722 38.2824C166.236 37.7099 165.548 37.4506 164.788 37.4506C163.888 37.4506 163.211 37.9556 163.211 38.6685C163.211 39.449 164.051 39.6785 164.971 39.9242C166.053 40.2213 167.258 40.5562 167.258 41.9037C167.258 42.7436 166.681 43.7643 164.86 43.7643C163.747 43.7643 162.907 43.3296 162.391 42.7165L162.764 42.2899Z" fill="white"/>
<path d="M171.072 37.0454H175.354V37.5612H171.65V40.0052H175.282V40.5209H171.65V43.1323H175.354V43.6481H171.072V37.0454Z" fill="white"/>
<path d="M29.5195 57.3474C45.5358 57.3474 58.5195 44.6536 58.5195 28.995C58.5195 13.3364 45.5358 0.642578 29.5195 0.642578C13.5033 0.642578 0.519531 13.3364 0.519531 28.995C0.519531 44.6536 13.5033 57.3474 29.5195 57.3474Z" fill="white"/>
<path d="M17.8687 43.7722C17.6229 43.7722 17.424 43.702 17.2666 43.5588C17.1091 43.4184 17.0318 43.2483 17.0318 43.0484V18.5469C17.0318 18.3498 17.1091 18.1797 17.2666 18.0365C17.424 17.8961 17.6256 17.8232 17.8687 17.8232H26.9341C29.3455 17.8232 31.4834 18.3606 33.3534 19.4354C35.2206 20.5102 36.6459 21.9117 37.6237 23.64C38.4275 25.1982 38.828 26.9373 38.828 28.8628C38.828 30.0807 38.6623 31.2554 38.3308 32.3869C37.9994 33.5184 37.4829 34.5608 36.784 35.5087C36.0852 36.4566 35.193 37.291 34.113 38.0147C33.0302 38.7358 31.7375 39.2948 30.2349 39.6917C29.6052 39.6917 29.2405 39.5351 29.1356 39.2246C29.0638 39.0274 29.0831 38.8411 29.1881 38.6737C29.293 38.5035 29.4671 38.3901 29.7129 38.3334C30.2708 38.193 30.9697 37.9445 31.8094 37.5908C32.6463 37.237 33.4611 36.6996 34.2456 35.9786C35.0328 35.2575 35.704 34.3232 36.262 33.1755C36.8199 32.0277 37.0989 30.5938 37.0989 28.8655C37.0989 27.3937 36.8282 26.0138 36.2868 24.7256C35.7455 23.4375 34.7925 22.2844 33.4308 21.2636C32.522 20.6128 31.5 20.1105 30.3648 19.7567C29.2295 19.403 28.086 19.2247 26.9341 19.2247H18.7609V43.0457C18.7609 43.2429 18.6725 43.413 18.4985 43.5561C18.3245 43.702 18.1145 43.7722 17.8687 43.7722ZM22.4291 15.6196C22.1832 15.6196 21.976 15.5548 21.7993 15.4279C21.6253 15.3009 21.5369 15.1389 21.5369 14.9391C21.5369 14.7419 21.6225 14.5718 21.7993 14.4287C21.9733 14.2882 22.1832 14.2153 22.4291 14.2153H28.0887C29.5914 14.2153 31.0387 14.4125 32.4364 14.8094C33.834 15.2064 35.1267 15.7438 36.3145 16.4216C37.5022 17.1022 38.5684 17.915 39.5103 18.8629C40.4522 19.8107 41.2035 20.8369 41.7642 21.9414C42.8829 24.064 43.4409 26.4701 43.4409 29.1598C43.4409 31.142 43.126 33.0161 42.499 34.785C41.8692 36.5538 40.919 38.0958 39.6429 39.4136C38.3667 40.7287 36.7702 41.7765 34.8477 42.5569C32.9253 43.3347 30.6741 43.7236 28.0887 43.7236H22.4815C22.2357 43.7236 22.0258 43.6588 21.8518 43.5318C21.6777 43.4049 21.5893 43.2429 21.5893 43.043V21.7686C21.5893 21.5418 21.675 21.3662 21.8518 21.2366C22.0258 21.1097 22.2357 21.0449 22.4815 21.0449C23.0395 21.0449 23.3185 21.2852 23.3185 21.7659V42.3166H28.086C30.8454 42.3166 33.3175 41.7576 35.4996 40.6396C37.6817 39.5216 39.281 37.9148 40.2948 35.8192C41.2367 33.9505 41.709 31.728 41.709 29.1517C41.709 27.1129 41.3333 25.155 40.582 23.2701C39.8307 21.3878 38.4938 19.754 36.5741 18.366C35.1405 17.3479 33.649 16.6323 32.0939 16.2218C30.5388 15.8113 29.2019 15.6061 28.086 15.6061H22.4291V15.6196Z" fill="#204471"/>
</svg>
