<svg width="25" height="24" viewBox="0 0 25 24" fill="none" xmlns="http://www.w3.org/2000/svg">
<path d="M21.45 0.187988L23.9 3.21937C22.9667 4.0534 22.0667 5.33652 21.2 7.06874C20.3667 8.76888 19.9167 10.9181 19.85 13.5164L25 14.142V23.188H15V18.9056C15 18.5206 15.0167 17.7187 15.05 16.4997C15.0833 15.2487 15.1167 14.4146 15.15 13.9976C15.1833 13.5485 15.2333 12.7947 15.3 11.7361C15.3667 10.6775 15.4667 9.90765 15.6 9.42648C15.7333 8.94531 15.9 8.27167 16.1 7.40556C16.3 6.53945 16.55 5.84977 16.85 5.33652C17.1833 4.82327 17.55 4.22983 17.95 3.55619C18.3833 2.88255 18.8833 2.2891 19.45 1.77585C20.05 1.23053 20.7167 0.701238 21.45 0.187988ZM6.75 0.187988L9.2 3.21937C8.26667 4.0534 7.36667 5.33652 6.5 7.06874C5.66667 8.76888 5.21667 10.9021 5.15 13.4683L10 14.142V23.188H0V18.9056C0 16.9488 0.0166667 15.4572 0.05 14.4307C0.0833333 13.4042 0.216667 12.089 0.45 10.4851C0.683333 8.84908 1.01667 7.51784 1.45 6.49134C1.91667 5.46484 2.58333 4.37418 3.45 3.21937C4.35 2.06456 5.45 1.0541 6.75 0.187988Z" fill="#A6B4C6"/>
</svg>
