<svg width="76" height="75" viewBox="0 0 76 75" fill="none" xmlns="http://www.w3.org/2000/svg">
<g clip-path="url(#clip0_101_647)">
<path d="M59.2397 65.4096H17.069C15.7382 65.4096 14.6593 64.3456 14.6593 63.0333V55.998C14.6593 52.6465 16.6645 49.5979 19.7679 48.2315C28.794 44.2572 28.2992 44.3916 29.0026 44.3916H31.8667C32.9758 44.3916 33.9417 45.1381 34.2067 46.2001C35.2169 50.2481 41.0916 50.25 42.1021 46.2001C42.3672 45.1382 43.3331 44.3916 44.4422 44.3916C47.5245 44.3916 47.6828 44.3313 48.2887 44.5981L56.541 48.2315C59.6443 49.5979 61.6496 52.6465 61.6496 55.998V63.0333C61.6495 64.3456 60.5705 65.4096 59.2397 65.4096ZM38.2133 9.32208C30.0969 9.32208 23.4939 15.8334 23.4939 23.837C23.4939 31.8407 30.0969 38.352 38.2133 38.352C46.3296 38.352 52.9326 31.8407 52.9326 23.837C52.9326 15.8334 46.3296 9.32208 38.2133 9.32208ZM14.9933 24.8476C9.88297 24.8476 5.72539 28.9474 5.72539 33.9869C5.72539 39.0263 9.88297 43.1261 14.9933 43.1261C20.1038 43.1261 24.2614 39.0263 24.2614 33.9869C24.2612 28.9474 20.1036 24.8476 14.9933 24.8476ZM61.3154 24.8476C56.2049 24.8476 52.0474 28.9474 52.0474 33.9869C52.0474 39.0263 56.2049 43.1261 61.3154 43.1261C66.4258 43.1261 70.5833 39.0263 70.5833 33.9869C70.5833 28.9474 66.4258 24.8476 61.3154 24.8476ZM72.0265 46.617C67.0124 44.4088 67.1324 44.3863 66.4464 44.3863C62.8569 44.3863 60.5088 44.3615 58.9204 44.3537C57.3417 44.346 56.8188 46.434 58.2177 47.1555C59.3631 47.7463 60.0584 48.2503 60.8844 49.139C63.2946 51.7204 63.5191 54.4524 63.5187 56.7174C63.5186 57.5377 64.1925 58.2015 65.0243 58.2015H73.0958C74.4272 58.2015 75.5056 57.1367 75.5056 55.8253V51.9057C75.5056 49.623 74.1395 47.5482 72.0265 46.617ZM9.86234 44.3863C9.17947 44.3863 9.31382 44.4011 4.28225 46.617C2.16919 47.5482 0.803162 49.623 0.803162 51.9057V55.8251C0.803162 57.1365 1.88153 58.2014 3.21292 58.2014H11.2838C12.1161 58.2014 12.7905 57.5366 12.7894 56.7161C12.7867 54.443 13.0047 51.7305 15.4244 49.1388C16.2462 48.2544 16.9475 47.746 18.0676 47.1658C19.4636 46.4426 18.9477 44.3607 17.3708 44.3634C15.773 44.3661 13.4252 44.3863 9.86234 44.3863Z" fill="#798EA9"/>
</g>
<defs>
<clipPath id="clip0_101_647">
<rect width="74.7024" height="73.6649" fill="white" transform="translate(0.803162 0.533447)"/>
</clipPath>
</defs>
</svg>
