<svg width="40" height="40" viewBox="0 0 40 40" fill="none" xmlns="http://www.w3.org/2000/svg">
<path d="M8.23848 25.5826C8.23848 27.8607 6.39731 29.7019 4.11924 29.7019C1.84118 29.7019 0 27.8607 0 25.5826C0 23.3046 1.84118 21.4634 4.11924 21.4634H8.23848V25.5826ZM10.2981 25.5826C10.2981 23.3046 12.1393 21.4634 14.4173 21.4634C16.6954 21.4634 18.5366 23.3046 18.5366 25.5826V35.8807C18.5366 38.1588 16.6954 40 14.4173 40C12.1393 40 10.2981 38.1588 10.2981 35.8807V25.5826Z" fill="#4C8FCC"/>
<path d="M14.4243 8.22464C12.15 8.22464 10.3119 6.38655 10.3119 4.11232C10.3119 1.83808 12.15 0 14.4243 0C16.6985 0 18.5366 1.83808 18.5366 4.11232V8.22464H14.4243ZM14.4243 10.3119C16.6985 10.3119 18.5366 12.15 18.5366 14.4243C18.5366 16.6985 16.6985 18.5366 14.4243 18.5366H4.11232C1.83808 18.5366 0 16.6985 0 14.4243C0 12.15 1.83808 10.3119 4.11232 10.3119H14.4243Z" fill="#4C8FCC"/>
<path d="M31.7615 14.4243C31.7615 12.15 33.6027 10.3119 35.8808 10.3119C38.1588 10.3119 40 12.15 40 14.4243C40 16.6985 38.1588 18.5366 35.8808 18.5366H31.7615V14.4243ZM29.7019 14.4243C29.7019 16.6985 27.8607 18.5366 25.5826 18.5366C23.3046 18.5366 21.4634 16.6985 21.4634 14.4243V4.11232C21.4634 1.83808 23.3046 0 25.5826 0C27.8607 0 29.7019 1.83808 29.7019 4.11232V14.4243Z" fill="#4C8FCC"/>
<path d="M25.5757 31.7615C27.85 31.7615 29.688 33.6027 29.688 35.8807C29.688 38.1588 27.85 40 25.5757 40C23.3015 40 21.4634 38.1588 21.4634 35.8807V31.7615H25.5757ZM25.5757 29.7019C23.3015 29.7019 21.4634 27.8607 21.4634 25.5826C21.4634 23.3046 23.3015 21.4634 25.5757 21.4634H35.8877C38.1619 21.4634 40 23.3046 40 25.5826C40 27.8607 38.1619 29.7019 35.8877 29.7019H25.5757Z" fill="#4C8FCC"/>
</svg>
