<svg width="623" height="796" viewBox="0 0 623 796" fill="none" xmlns="http://www.w3.org/2000/svg">
<path d="M478.555 141V129.555H480.805C481.211 130.19 482.036 131.471 483.281 133.398C484.526 135.326 485.284 136.497 485.555 136.914C485.633 137.034 485.766 137.237 485.953 137.523C486.146 137.805 486.281 138.005 486.359 138.125C486.323 136.339 486.305 135.411 486.305 135.344V129.555H488.234V141H485.953L480.789 132.953L480.414 132.336C480.456 133.711 480.477 134.677 480.477 135.234V141H478.555ZM492.295 141V129.555H499.233L499.147 131.234H494.412V134.188H498.912V135.867H494.412V139.312H499.319L499.248 141H492.295ZM505.106 141V131.25H501.77V129.555H510.552V131.25H507.231V141H505.106ZM515.448 141L512.339 129.555H514.448L516.667 138.461L519.277 129.609H521.3L523.777 138.492L526.042 129.555H528.152L524.948 141H522.753L520.308 132.617L517.628 141H515.448ZM533.736 138.352C534.304 139.076 535.142 139.438 536.252 139.438C537.361 139.438 538.197 139.078 538.759 138.359C539.327 137.635 539.611 136.615 539.611 135.297C539.611 133.964 539.327 132.93 538.759 132.195C538.197 131.461 537.364 131.094 536.259 131.094C535.15 131.094 534.309 131.464 533.736 132.203C533.168 132.938 532.884 133.969 532.884 135.297C532.884 136.609 533.168 137.628 533.736 138.352ZM536.244 141.164C534.52 141.164 533.158 140.643 532.158 139.602C531.163 138.555 530.666 137.112 530.666 135.273C530.666 133.424 531.166 131.982 532.166 130.945C533.166 129.909 534.528 129.391 536.252 129.391C537.976 129.391 539.335 129.911 540.33 130.953C541.324 131.99 541.822 133.432 541.822 135.281C541.822 137.109 541.322 138.547 540.322 139.594C539.322 140.641 537.963 141.164 536.244 141.164ZM545.375 141V129.523H549.617C550.195 129.523 550.695 129.549 551.117 129.602C551.544 129.654 551.948 129.75 552.328 129.891C552.714 130.026 553.023 130.211 553.258 130.445C553.497 130.68 553.685 130.987 553.82 131.367C553.961 131.742 554.031 132.188 554.031 132.703C554.031 134.224 553.341 135.224 551.961 135.703C552.242 136.021 552.591 136.609 553.008 137.469L554.711 141H552.398L551.062 138.008C550.557 136.935 550.245 136.299 550.125 136.102C550.036 136.096 549.742 136.094 549.242 136.094L547.469 136.078V141H545.375ZM549.805 134.562C550.617 134.562 551.201 134.419 551.555 134.133C551.909 133.841 552.086 133.375 552.086 132.734C552.086 132.172 551.906 131.758 551.547 131.492C551.188 131.227 550.638 131.094 549.898 131.094H547.469V134.555C547.547 134.555 547.935 134.557 548.633 134.562C549.331 134.562 549.721 134.562 549.805 134.562ZM557.819 141V129.555H559.944V134.711C560.314 134.221 561.069 133.307 562.209 131.969C563.355 130.63 564.037 129.826 564.256 129.555H566.764L562.436 134.703L567.037 141H564.553L560.819 135.867L559.944 136.602V141H557.819ZM574.534 141L578.745 129.547H581.05L585.198 141H583.027L581.894 137.766H577.886L576.745 141H574.534ZM578.417 136.188H581.355C580.417 133.182 579.935 131.63 579.909 131.531L578.417 136.188ZM589.525 141V131.25H586.189V129.555H594.97V131.25H591.65V141H589.525ZM466.678 163L462.514 151.555H464.694L467.116 158.625C467.209 158.87 467.426 159.586 467.764 160.773C467.785 160.69 467.881 160.349 468.053 159.75C468.225 159.146 468.337 158.776 468.389 158.641C468.452 158.464 468.847 157.289 469.577 155.117C470.306 152.94 470.704 151.753 470.772 151.555H472.928L468.819 163H466.678ZM475.778 163V151.555H477.895V163H475.778ZM481.972 163V151.523H486.214C486.792 151.523 487.292 151.549 487.714 151.602C488.141 151.654 488.545 151.75 488.925 151.891C489.31 152.026 489.62 152.211 489.855 152.445C490.094 152.68 490.282 152.987 490.417 153.367C490.558 153.742 490.628 154.188 490.628 154.703C490.628 156.224 489.938 157.224 488.558 157.703C488.839 158.021 489.188 158.609 489.605 159.469L491.308 163H488.995L487.659 160.008C487.154 158.935 486.842 158.299 486.722 158.102C486.633 158.096 486.339 158.094 485.839 158.094L484.066 158.078V163H481.972ZM486.402 156.562C487.214 156.562 487.797 156.419 488.152 156.133C488.506 155.841 488.683 155.375 488.683 154.734C488.683 154.172 488.503 153.758 488.144 153.492C487.784 153.227 487.235 153.094 486.495 153.094H484.066V156.555C484.144 156.555 484.532 156.557 485.23 156.562C485.928 156.562 486.318 156.562 486.402 156.562ZM496.728 163V153.25H493.392V151.555H502.173V153.25H498.853V163H496.728ZM509.586 163.164C508.086 163.164 506.948 162.792 506.172 162.047C505.396 161.297 505.008 160.242 505.008 158.883V151.555H507.133V158.703C507.133 159.656 507.326 160.352 507.711 160.789C508.102 161.227 508.74 161.445 509.625 161.445C510.495 161.445 511.125 161.227 511.516 160.789C511.906 160.346 512.102 159.648 512.102 158.695V151.555H514.219V158.898C514.219 160.247 513.823 161.297 513.031 162.047C512.24 162.792 511.091 163.164 509.586 163.164ZM516.787 163L520.998 151.547H523.303L527.452 163H525.28L524.147 159.766H520.139L518.998 163H516.787ZM520.67 158.188H523.608C522.67 155.182 522.189 153.63 522.162 153.531L520.67 158.188ZM530.192 163V151.555H532.309V161.312H537.098L537.036 163H530.192ZM546.002 163V151.555H552.939L552.853 153.234H548.119V156.188H552.619V157.867H548.119V161.312H553.025L552.955 163H546.002ZM559.484 163L555.32 151.555H557.5L559.922 158.625C560.016 158.87 560.232 159.586 560.57 160.773C560.591 160.69 560.688 160.349 560.859 159.75C561.031 159.146 561.143 158.776 561.195 158.641C561.258 158.464 561.654 157.289 562.383 155.117C563.112 152.94 563.51 151.753 563.578 151.555H565.734L561.625 163H559.484ZM568.436 163V151.555H575.373L575.287 153.234H570.553V156.188H575.053V157.867H570.553V161.312H575.459L575.389 163H568.436ZM579.036 163V151.555H581.286C581.692 152.19 582.518 153.471 583.762 155.398C585.007 157.326 585.765 158.497 586.036 158.914C586.114 159.034 586.247 159.237 586.434 159.523C586.627 159.805 586.762 160.005 586.841 160.125C586.804 158.339 586.786 157.411 586.786 157.344V151.555H588.716V163H586.434L581.27 154.953L580.895 154.336C580.937 155.711 580.958 156.677 580.958 157.234V163H579.036ZM594.987 163V153.25H591.652V151.555H600.433V153.25H597.112V163H594.987ZM606.587 163.156C605.207 163.156 603.97 162.839 602.877 162.203L603.392 160.523C603.882 160.794 604.413 161.013 604.986 161.18C605.564 161.346 606.127 161.43 606.673 161.43C607.345 161.43 607.853 161.286 608.197 161C608.541 160.708 608.712 160.292 608.712 159.75C608.712 159.031 608.233 158.534 607.275 158.258C607.207 158.237 607.017 158.182 606.705 158.094C606.392 158 606.098 157.911 605.822 157.828C605.551 157.74 605.356 157.672 605.236 157.625C603.699 157.083 602.931 156.073 602.931 154.594C602.931 153.557 603.298 152.758 604.033 152.195C604.772 151.633 605.752 151.352 606.97 151.352C608.351 151.352 609.541 151.635 610.541 152.203L609.9 153.75C608.879 153.292 607.931 153.062 607.056 153.062C606.426 153.062 605.949 153.174 605.627 153.398C605.309 153.617 605.14 153.984 605.119 154.5C605.119 155.135 605.434 155.549 606.064 155.742C606.189 155.789 606.496 155.891 606.986 156.047C607.476 156.203 607.793 156.305 607.939 156.352C608.986 156.695 609.733 157.122 610.181 157.633C610.634 158.143 610.861 158.854 610.861 159.766C610.861 160.854 610.476 161.693 609.705 162.281C608.934 162.865 607.895 163.156 606.587 163.156Z" fill="#232327"/>
<path d="M268.931 19.5078L268.845 17.8438C269.095 17.8854 269.369 17.9062 269.666 17.9062C270.244 17.9062 270.634 17.7578 270.838 17.4609C271.041 17.1641 271.142 16.6745 271.142 15.9922V5.52344H273.267V15.8516C273.267 16.5078 273.207 17.0599 273.088 17.5078C272.973 17.9609 272.775 18.3438 272.494 18.6562C272.218 18.974 271.848 19.2057 271.384 19.3516C270.926 19.4974 270.356 19.5703 269.673 19.5703C269.387 19.5703 269.14 19.5495 268.931 19.5078ZM279.898 14.3516C280.466 15.0755 281.305 15.4375 282.414 15.4375C283.523 15.4375 284.359 15.0781 284.922 14.3594C285.49 13.6354 285.773 12.6146 285.773 11.2969C285.773 9.96354 285.49 8.92969 284.922 8.19531C284.359 7.46094 283.526 7.09375 282.422 7.09375C281.312 7.09375 280.471 7.46354 279.898 8.20312C279.331 8.9375 279.047 9.96875 279.047 11.2969C279.047 12.6094 279.331 13.6276 279.898 14.3516ZM282.406 17.1641C280.682 17.1641 279.32 16.6432 278.32 15.6016C277.326 14.5547 276.828 13.112 276.828 11.2734C276.828 9.42448 277.328 7.98177 278.328 6.94531C279.328 5.90885 280.69 5.39062 282.414 5.39062C284.138 5.39062 285.497 5.91146 286.492 6.95312C287.487 7.98958 287.984 9.43229 287.984 11.2812C287.984 13.1094 287.484 14.5469 286.484 15.5938C285.484 16.6406 284.125 17.1641 282.406 17.1641ZM291.647 17V5.55469H293.764V17H291.647ZM297.895 17V5.55469H300.145C300.552 6.1901 301.377 7.47135 302.622 9.39844C303.867 11.3255 304.624 12.4974 304.895 12.9141C304.973 13.0339 305.106 13.237 305.294 13.5234C305.486 13.8047 305.622 14.0052 305.7 14.125C305.664 12.3385 305.645 11.4115 305.645 11.3438V5.55469H307.575V17H305.294L300.13 8.95312L299.755 8.33594C299.796 9.71094 299.817 10.6771 299.817 11.2344V17H297.895ZM320.08 14.3516C320.647 15.0755 321.486 15.4375 322.595 15.4375C323.705 15.4375 324.541 15.0781 325.103 14.3594C325.671 13.6354 325.955 12.6146 325.955 11.2969C325.955 9.96354 325.671 8.92969 325.103 8.19531C324.541 7.46094 323.707 7.09375 322.603 7.09375C321.494 7.09375 320.653 7.46354 320.08 8.20312C319.512 8.9375 319.228 9.96875 319.228 11.2969C319.228 12.6094 319.512 13.6276 320.08 14.3516ZM322.588 17.1641C320.864 17.1641 319.502 16.6432 318.502 15.6016C317.507 14.5547 317.009 13.112 317.009 11.2734C317.009 9.42448 317.509 7.98177 318.509 6.94531C319.509 5.90885 320.871 5.39062 322.595 5.39062C324.319 5.39062 325.679 5.91146 326.673 6.95312C327.668 7.98958 328.166 9.43229 328.166 11.2812C328.166 13.1094 327.666 14.5469 326.666 15.5938C325.666 16.6406 324.306 17.1641 322.588 17.1641ZM336.242 17.1641C334.742 17.1641 333.604 16.7917 332.828 16.0469C332.052 15.2969 331.664 14.2422 331.664 12.8828V5.55469H333.789V12.7031C333.789 13.6562 333.982 14.3516 334.367 14.7891C334.758 15.2266 335.396 15.4453 336.281 15.4453C337.151 15.4453 337.781 15.2266 338.172 14.7891C338.562 14.3464 338.758 13.6484 338.758 12.6953V5.55469H340.875V12.8984C340.875 14.2474 340.479 15.2969 339.688 16.0469C338.896 16.7917 337.747 17.1641 336.242 17.1641ZM344.787 17V5.52344H349.03C349.608 5.52344 350.108 5.54948 350.53 5.60156C350.957 5.65365 351.36 5.75 351.741 5.89062C352.126 6.02604 352.436 6.21094 352.67 6.44531C352.91 6.67969 353.097 6.98698 353.233 7.36719C353.373 7.74219 353.444 8.1875 353.444 8.70312C353.444 10.224 352.754 11.224 351.373 11.7031C351.655 12.0208 352.004 12.6094 352.42 13.4688L354.123 17H351.811L350.475 14.0078C349.97 12.9349 349.657 12.2995 349.537 12.1016C349.449 12.0964 349.155 12.0938 348.655 12.0938L346.881 12.0781V17H344.787ZM349.217 10.5625C350.03 10.5625 350.613 10.4193 350.967 10.1328C351.321 9.84115 351.498 9.375 351.498 8.73438C351.498 8.17188 351.319 7.75781 350.959 7.49219C350.6 7.22656 350.051 7.09375 349.311 7.09375H346.881V10.5547C346.959 10.5547 347.347 10.5573 348.045 10.5625C348.743 10.5625 349.134 10.5625 349.217 10.5625ZM243.15 39.1562C241.77 39.1562 240.533 38.8385 239.439 38.2031L239.955 36.5234C240.444 36.7943 240.976 37.013 241.548 37.1797C242.127 37.3464 242.689 37.4297 243.236 37.4297C243.908 37.4297 244.416 37.2865 244.759 37C245.103 36.7083 245.275 36.2917 245.275 35.75C245.275 35.0312 244.796 34.5339 243.838 34.2578C243.77 34.237 243.58 34.1823 243.267 34.0938C242.955 34 242.66 33.9115 242.384 33.8281C242.114 33.7396 241.918 33.6719 241.798 33.625C240.262 33.0833 239.494 32.0729 239.494 30.5938C239.494 29.5573 239.861 28.7578 240.595 28.1953C241.335 27.6328 242.314 27.3516 243.533 27.3516C244.913 27.3516 246.103 27.6354 247.103 28.2031L246.463 29.75C245.442 29.2917 244.494 29.0625 243.619 29.0625C242.989 29.0625 242.512 29.1745 242.189 29.3984C241.871 29.6172 241.702 29.9844 241.681 30.5C241.681 31.1354 241.996 31.5495 242.627 31.7422C242.752 31.7891 243.059 31.8906 243.548 32.0469C244.038 32.2031 244.356 32.3047 244.502 32.3516C245.548 32.6953 246.296 33.1224 246.744 33.6328C247.197 34.1432 247.423 34.8542 247.423 35.7656C247.423 36.8542 247.038 37.6927 246.267 38.2812C245.496 38.8646 244.457 39.1562 243.15 39.1562ZM250.836 39V27.5547H252.953V37.3125H257.742L257.68 39H250.836ZM259.553 39L263.764 27.5469H266.069L270.217 39H268.045L266.913 35.7656H262.905L261.764 39H259.553ZM263.436 34.1875H266.373C265.436 31.1823 264.954 29.6302 264.928 29.5312L263.436 34.1875ZM277.934 39.1641C276.263 39.1641 274.937 38.638 273.958 37.5859C272.979 36.5339 272.489 35.0807 272.489 33.2266C272.489 31.4661 272.999 30.0547 274.02 28.9922C275.046 27.9245 276.388 27.3906 278.044 27.3906C279.382 27.3906 280.515 27.7005 281.442 28.3203L280.778 29.9219C279.888 29.375 278.992 29.1016 278.091 29.1016C277.039 29.1016 276.205 29.4818 275.591 30.2422C274.981 30.9974 274.677 32.013 274.677 33.2891C274.677 34.612 274.971 35.6354 275.559 36.3594C276.153 37.0833 276.997 37.4453 278.091 37.4453C279.049 37.4453 279.999 37.2057 280.942 36.7266L281.223 38.3828C280.348 38.9036 279.252 39.1641 277.934 39.1641ZM284.706 39V27.5547H286.831V32.7109C287.201 32.2214 287.956 31.3073 289.097 29.9688C290.243 28.6302 290.925 27.8255 291.144 27.5547H293.652L289.323 32.7031L293.925 39H291.441L287.706 33.8672L286.831 34.6016V39H284.706ZM307.672 39.1641C306 39.1641 304.674 38.638 303.695 37.5859C302.716 36.5339 302.227 35.0807 302.227 33.2266C302.227 31.4661 302.737 30.0547 303.758 28.9922C304.784 27.9245 306.125 27.3906 307.781 27.3906C309.12 27.3906 310.253 27.7005 311.18 28.3203L310.516 29.9219C309.625 29.375 308.729 29.1016 307.828 29.1016C306.776 29.1016 305.943 29.4818 305.328 30.2422C304.719 30.9974 304.414 32.013 304.414 33.2891C304.414 34.612 304.708 35.6354 305.297 36.3594C305.891 37.0833 306.734 37.4453 307.828 37.4453C308.786 37.4453 309.737 37.2057 310.68 36.7266L310.961 38.3828C310.086 38.9036 308.99 39.1641 307.672 39.1641ZM314.452 39V27.5547H316.569V32.2344H321.741V27.5547H323.858V39H321.741V33.9062H316.569V39H314.452ZM326.669 39L330.88 27.5469H333.184L337.333 39H335.161L334.028 35.7656H330.02L328.88 39H326.669ZM330.552 34.1875H333.489C332.552 31.1823 332.07 29.6302 332.044 29.5312L330.552 34.1875ZM340.073 39V27.5547H342.323C342.73 28.1901 343.555 29.4714 344.8 31.3984C346.045 33.3255 346.803 34.4974 347.073 34.9141C347.152 35.0339 347.284 35.237 347.472 35.5234C347.665 35.8047 347.8 36.0052 347.878 36.125C347.842 34.3385 347.823 33.4115 347.823 33.3438V27.5547H349.753V39H347.472L342.308 30.9531L341.933 30.3359C341.974 31.7109 341.995 32.6771 341.995 33.2344V39H340.073ZM353.814 39V27.5547H356.064C356.47 28.1901 357.296 29.4714 358.541 31.3984C359.785 33.3255 360.543 34.4974 360.814 34.9141C360.892 35.0339 361.025 35.237 361.213 35.5234C361.405 35.8047 361.541 36.0052 361.619 36.125C361.582 34.3385 361.564 33.4115 361.564 33.3438V27.5547H363.494V39H361.213L356.048 30.9531L355.673 30.3359C355.715 31.7109 355.736 32.6771 355.736 33.2344V39H353.814ZM367.555 39V27.5547H374.492L374.406 29.2344H369.672V32.1875H374.172V33.8672H369.672V37.3125H374.578L374.508 39H367.555ZM378.155 39V27.5547H380.272V37.3125H385.061L384.998 39H378.155Z" fill="#232327"/>
<path d="M497.253 622L493.089 610.555H495.269L497.691 617.625C497.784 617.87 498.001 618.586 498.339 619.773C498.36 619.69 498.456 619.349 498.628 618.75C498.8 618.146 498.912 617.776 498.964 617.641C499.027 617.464 499.422 616.289 500.152 614.117C500.881 611.94 501.279 610.753 501.347 610.555H503.503L499.394 622H497.253ZM506.353 622V610.555H508.47V622H506.353ZM515.812 622.156C514.432 622.156 513.195 621.839 512.102 621.203L512.617 619.523C513.107 619.794 513.638 620.013 514.211 620.18C514.789 620.346 515.352 620.43 515.898 620.43C516.57 620.43 517.078 620.286 517.422 620C517.766 619.708 517.938 619.292 517.938 618.75C517.938 618.031 517.458 617.534 516.5 617.258C516.432 617.237 516.242 617.182 515.93 617.094C515.617 617 515.323 616.911 515.047 616.828C514.776 616.74 514.581 616.672 514.461 616.625C512.924 616.083 512.156 615.073 512.156 613.594C512.156 612.557 512.523 611.758 513.258 611.195C513.997 610.633 514.977 610.352 516.195 610.352C517.576 610.352 518.766 610.635 519.766 611.203L519.125 612.75C518.104 612.292 517.156 612.062 516.281 612.062C515.651 612.062 515.174 612.174 514.852 612.398C514.534 612.617 514.365 612.984 514.344 613.5C514.344 614.135 514.659 614.549 515.289 614.742C515.414 614.789 515.721 614.891 516.211 615.047C516.701 615.203 517.018 615.305 517.164 615.352C518.211 615.695 518.958 616.122 519.406 616.633C519.859 617.143 520.086 617.854 520.086 618.766C520.086 619.854 519.701 620.693 518.93 621.281C518.159 621.865 517.12 622.156 515.812 622.156ZM523.553 622V610.555H525.67V622H523.553ZM532.013 622V612.25H528.677V610.555H537.458V612.25H534.138V622H532.013ZM548.845 619.352C549.413 620.076 550.252 620.438 551.361 620.438C552.47 620.438 553.306 620.078 553.869 619.359C554.436 618.635 554.72 617.615 554.72 616.297C554.72 614.964 554.436 613.93 553.869 613.195C553.306 612.461 552.473 612.094 551.369 612.094C550.259 612.094 549.418 612.464 548.845 613.203C548.278 613.938 547.994 614.969 547.994 616.297C547.994 617.609 548.278 618.628 548.845 619.352ZM551.353 622.164C549.629 622.164 548.267 621.643 547.267 620.602C546.272 619.555 545.775 618.112 545.775 616.273C545.775 614.424 546.275 612.982 547.275 611.945C548.275 610.909 549.637 610.391 551.361 610.391C553.085 610.391 554.444 610.911 555.439 611.953C556.434 612.99 556.931 614.432 556.931 616.281C556.931 618.109 556.431 619.547 555.431 620.594C554.431 621.641 553.072 622.164 551.353 622.164ZM565.008 622.164C563.508 622.164 562.37 621.792 561.594 621.047C560.818 620.297 560.43 619.242 560.43 617.883V610.555H562.555V617.703C562.555 618.656 562.747 619.352 563.133 619.789C563.523 620.227 564.161 620.445 565.047 620.445C565.917 620.445 566.547 620.227 566.938 619.789C567.328 619.346 567.523 618.648 567.523 617.695V610.555H569.641V617.898C569.641 619.247 569.245 620.297 568.453 621.047C567.661 621.792 566.513 622.164 565.008 622.164ZM573.553 622V610.523H577.795C578.373 610.523 578.873 610.549 579.295 610.602C579.722 610.654 580.126 610.75 580.506 610.891C580.892 611.026 581.202 611.211 581.436 611.445C581.676 611.68 581.863 611.987 581.998 612.367C582.139 612.742 582.209 613.188 582.209 613.703C582.209 615.224 581.519 616.224 580.139 616.703C580.42 617.021 580.769 617.609 581.186 618.469L582.889 622H580.577L579.241 619.008C578.735 617.935 578.423 617.299 578.303 617.102C578.215 617.096 577.92 617.094 577.42 617.094L575.647 617.078V622H573.553ZM577.983 615.562C578.795 615.562 579.379 615.419 579.733 615.133C580.087 614.841 580.264 614.375 580.264 613.734C580.264 613.172 580.084 612.758 579.725 612.492C579.366 612.227 578.816 612.094 578.077 612.094H575.647V615.555C575.725 615.555 576.113 615.557 576.811 615.562C577.509 615.562 577.899 615.562 577.983 615.562ZM489.327 644V632.555H491.444V642.312H496.233L496.17 644H489.327ZM501.911 641.352C502.479 642.076 503.317 642.438 504.427 642.438C505.536 642.438 506.372 642.078 506.934 641.359C507.502 640.635 507.786 639.615 507.786 638.297C507.786 636.964 507.502 635.93 506.934 635.195C506.372 634.461 505.539 634.094 504.434 634.094C503.325 634.094 502.484 634.464 501.911 635.203C501.343 635.938 501.059 636.969 501.059 638.297C501.059 639.609 501.343 640.628 501.911 641.352ZM504.419 644.164C502.695 644.164 501.333 643.643 500.333 642.602C499.338 641.555 498.841 640.112 498.841 638.273C498.841 636.424 499.341 634.982 500.341 633.945C501.341 632.909 502.703 632.391 504.427 632.391C506.151 632.391 507.51 632.911 508.505 633.953C509.499 634.99 509.997 636.432 509.997 638.281C509.997 640.109 509.497 641.547 508.497 642.594C507.497 643.641 506.137 644.164 504.419 644.164ZM518.597 644.164C516.925 644.164 515.599 643.638 514.62 642.586C513.641 641.534 513.152 640.081 513.152 638.227C513.152 636.466 513.662 635.055 514.683 633.992C515.709 632.924 517.05 632.391 518.706 632.391C520.045 632.391 521.178 632.701 522.105 633.32L521.441 634.922C520.55 634.375 519.654 634.102 518.753 634.102C517.701 634.102 516.868 634.482 516.253 635.242C515.644 635.997 515.339 637.013 515.339 638.289C515.339 639.612 515.633 640.635 516.222 641.359C516.816 642.083 517.659 642.445 518.753 642.445C519.711 642.445 520.662 642.206 521.605 641.727L521.886 643.383C521.011 643.904 519.915 644.164 518.597 644.164ZM524.119 644L528.33 632.547H530.634L534.783 644H532.611L531.478 640.766H527.47L526.33 644H524.119ZM528.002 639.188H530.939C530.002 636.182 529.52 634.63 529.494 634.531L528.002 639.188ZM539.109 644V634.25H535.773V632.555H544.555V634.25H541.234V644H539.109ZM547.553 644V632.555H549.67V644H547.553ZM556.411 641.352C556.979 642.076 557.817 642.438 558.927 642.438C560.036 642.438 560.872 642.078 561.434 641.359C562.002 640.635 562.286 639.615 562.286 638.297C562.286 636.964 562.002 635.93 561.434 635.195C560.872 634.461 560.039 634.094 558.934 634.094C557.825 634.094 556.984 634.464 556.411 635.203C555.843 635.938 555.559 636.969 555.559 638.297C555.559 639.609 555.843 640.628 556.411 641.352ZM558.919 644.164C557.195 644.164 555.833 643.643 554.833 642.602C553.838 641.555 553.341 640.112 553.341 638.273C553.341 636.424 553.841 634.982 554.841 633.945C555.841 632.909 557.203 632.391 558.927 632.391C560.651 632.391 562.01 632.911 563.005 633.953C563.999 634.99 564.497 636.432 564.497 638.281C564.497 640.109 563.997 641.547 562.997 642.594C561.997 643.641 560.637 644.164 558.919 644.164ZM568.105 644V632.555H570.355C570.761 633.19 571.586 634.471 572.831 636.398C574.076 638.326 574.834 639.497 575.105 639.914C575.183 640.034 575.316 640.237 575.503 640.523C575.696 640.805 575.831 641.005 575.909 641.125C575.873 639.339 575.855 638.411 575.855 638.344V632.555H577.784V644H575.503L570.339 635.953L569.964 635.336C570.006 636.711 570.027 637.677 570.027 638.234V644H568.105ZM585.056 644.156C583.676 644.156 582.439 643.839 581.345 643.203L581.861 641.523C582.351 641.794 582.882 642.013 583.455 642.18C584.033 642.346 584.595 642.43 585.142 642.43C585.814 642.43 586.322 642.286 586.666 642C587.009 641.708 587.181 641.292 587.181 640.75C587.181 640.031 586.702 639.534 585.744 639.258C585.676 639.237 585.486 639.182 585.173 639.094C584.861 639 584.567 638.911 584.291 638.828C584.02 638.74 583.824 638.672 583.705 638.625C582.168 638.083 581.4 637.073 581.4 635.594C581.4 634.557 581.767 633.758 582.502 633.195C583.241 632.633 584.22 632.352 585.439 632.352C586.819 632.352 588.009 632.635 589.009 633.203L588.369 634.75C587.348 634.292 586.4 634.062 585.525 634.062C584.895 634.062 584.418 634.174 584.095 634.398C583.778 634.617 583.608 634.984 583.588 635.5C583.588 636.135 583.903 636.549 584.533 636.742C584.658 636.789 584.965 636.891 585.455 637.047C585.944 637.203 586.262 637.305 586.408 637.352C587.455 637.695 588.202 638.122 588.65 638.633C589.103 639.143 589.33 639.854 589.33 640.766C589.33 641.854 588.944 642.693 588.173 643.281C587.403 643.865 586.364 644.156 585.056 644.156Z" fill="#232327"/>
<path d="M249.82 751V739.555H251.938V749.312H256.727L256.664 751H249.82ZM259.795 751V739.555H266.733L266.647 741.234H261.912V744.188H266.412V745.867H261.912V749.312H266.819L266.748 751H259.795ZM269.138 751L273.348 739.547H275.653L279.802 751H277.63L276.497 747.766H272.489L271.348 751H269.138ZM273.02 746.188H275.958C275.02 743.182 274.539 741.63 274.513 741.531L273.02 746.188ZM282.487 751V739.523H286.73C287.308 739.523 287.808 739.549 288.23 739.602C288.657 739.654 289.06 739.75 289.441 739.891C289.826 740.026 290.136 740.211 290.37 740.445C290.61 740.68 290.797 740.987 290.933 741.367C291.073 741.742 291.144 742.188 291.144 742.703C291.144 744.224 290.454 745.224 289.073 745.703C289.355 746.021 289.704 746.609 290.12 747.469L291.823 751H289.511L288.175 748.008C287.67 746.935 287.357 746.299 287.237 746.102C287.149 746.096 286.855 746.094 286.355 746.094L284.581 746.078V751H282.487ZM286.917 744.562C287.73 744.562 288.313 744.419 288.667 744.133C289.021 743.841 289.198 743.375 289.198 742.734C289.198 742.172 289.019 741.758 288.659 741.492C288.3 741.227 287.751 741.094 287.011 741.094H284.581V744.555C284.659 744.555 285.047 744.557 285.745 744.562C286.443 744.562 286.834 744.562 286.917 744.562ZM294.939 751V739.555H297.189C297.595 740.19 298.421 741.471 299.666 743.398C300.91 745.326 301.668 746.497 301.939 746.914C302.017 747.034 302.15 747.237 302.338 747.523C302.53 747.805 302.666 748.005 302.744 748.125C302.707 746.339 302.689 745.411 302.689 745.344V739.555H304.619V751H302.338L297.173 742.953L296.798 742.336C296.84 743.711 296.861 744.677 296.861 745.234V751H294.939ZM316.467 751L313.358 739.555H315.467L317.686 748.461L320.295 739.609H322.319L324.795 748.492L327.061 739.555H329.17L325.967 751H323.772L321.327 742.617L318.647 751H316.467ZM332.2 751V739.555H334.317V751H332.2ZM340.659 751V741.25H337.323V739.555H346.105V741.25H342.784V751H340.659ZM348.939 751V739.555H351.056V744.234H356.228V739.555H358.345V751H356.228V745.906H351.056V751H348.939ZM230.73 771.305H232.245C233.553 771.305 234.547 770.964 235.23 770.281C235.912 769.594 236.253 768.594 236.253 767.281C236.253 765.875 235.902 764.854 235.198 764.219C234.495 763.578 233.435 763.258 232.019 763.258H230.73V771.305ZM228.613 773V761.555H231.925C232.925 761.555 233.821 761.669 234.613 761.898C235.404 762.128 236.084 762.474 236.652 762.938C237.224 763.396 237.662 763.99 237.964 764.719C238.271 765.443 238.425 766.281 238.425 767.234C238.425 769.083 237.868 770.508 236.753 771.508C235.639 772.503 234.094 773 232.12 773H228.613ZM241.978 773V761.523H246.22C246.798 761.523 247.298 761.549 247.72 761.602C248.147 761.654 248.551 761.75 248.931 761.891C249.317 762.026 249.627 762.211 249.861 762.445C250.101 762.68 250.288 762.987 250.423 763.367C250.564 763.742 250.634 764.188 250.634 764.703C250.634 766.224 249.944 767.224 248.564 767.703C248.845 768.021 249.194 768.609 249.611 769.469L251.314 773H249.002L247.666 770.008C247.16 768.935 246.848 768.299 246.728 768.102C246.64 768.096 246.345 768.094 245.845 768.094L244.072 768.078V773H241.978ZM246.408 766.562C247.22 766.562 247.804 766.419 248.158 766.133C248.512 765.841 248.689 765.375 248.689 764.734C248.689 764.172 248.509 763.758 248.15 763.492C247.791 763.227 247.241 763.094 246.502 763.094H244.072V766.555C244.15 766.555 244.538 766.557 245.236 766.562C245.934 766.562 246.324 766.562 246.408 766.562ZM253.266 773L257.477 761.547H259.781L263.93 773H261.758L260.625 769.766H256.617L255.477 773H253.266ZM257.148 768.188H260.086C259.148 765.182 258.667 763.63 258.641 763.531L257.148 768.188ZM266.616 773V761.523H270.428C271.329 761.523 272.1 761.641 272.741 761.875C273.381 762.104 273.886 762.479 274.256 763C274.631 763.521 274.819 764.174 274.819 764.961C274.819 765.508 274.748 765.995 274.608 766.422C274.467 766.844 274.235 767.229 273.913 767.578C273.59 767.922 273.134 768.188 272.545 768.375C271.962 768.562 271.256 768.656 270.428 768.656C269.72 768.656 269.144 768.635 268.702 768.594V773H266.616ZM270.202 767.125C270.634 767.125 271.009 767.083 271.327 767C271.649 766.917 271.899 766.81 272.077 766.68C272.259 766.549 272.402 766.388 272.506 766.195C272.616 766.003 272.686 765.818 272.717 765.641C272.754 765.458 272.772 765.255 272.772 765.031C272.772 764.401 272.569 763.922 272.163 763.594C271.756 763.266 271.183 763.102 270.444 763.102H268.702V767.109C268.764 767.12 269.264 767.125 270.202 767.125ZM278.005 773V761.555H284.942L284.856 763.234H280.122V766.188H284.622V767.867H280.122V771.312H285.028L284.958 773H278.005ZM288.55 773V761.523H292.792C293.37 761.523 293.87 761.549 294.292 761.602C294.719 761.654 295.123 761.75 295.503 761.891C295.889 762.026 296.198 762.211 296.433 762.445C296.672 762.68 296.86 762.987 296.995 763.367C297.136 763.742 297.206 764.188 297.206 764.703C297.206 766.224 296.516 767.224 295.136 767.703C295.417 768.021 295.766 768.609 296.183 769.469L297.886 773H295.573L294.238 770.008C293.732 768.935 293.42 768.299 293.3 768.102C293.211 768.096 292.917 768.094 292.417 768.094L290.644 768.078V773H288.55ZM292.98 766.562C293.792 766.562 294.376 766.419 294.73 766.133C295.084 765.841 295.261 765.375 295.261 764.734C295.261 764.172 295.081 763.758 294.722 763.492C294.363 763.227 293.813 763.094 293.073 763.094H290.644V766.555C290.722 766.555 291.11 766.557 291.808 766.562C292.506 766.562 292.896 766.562 292.98 766.562ZM310.141 773.156C308.76 773.156 307.523 772.839 306.43 772.203L306.945 770.523C307.435 770.794 307.966 771.013 308.539 771.18C309.117 771.346 309.68 771.43 310.227 771.43C310.898 771.43 311.406 771.286 311.75 771C312.094 770.708 312.266 770.292 312.266 769.75C312.266 769.031 311.786 768.534 310.828 768.258C310.76 768.237 310.57 768.182 310.258 768.094C309.945 768 309.651 767.911 309.375 767.828C309.104 767.74 308.909 767.672 308.789 767.625C307.253 767.083 306.484 766.073 306.484 764.594C306.484 763.557 306.852 762.758 307.586 762.195C308.326 761.633 309.305 761.352 310.523 761.352C311.904 761.352 313.094 761.635 314.094 762.203L313.453 763.75C312.432 763.292 311.484 763.062 310.609 763.062C309.979 763.062 309.503 763.174 309.18 763.398C308.862 763.617 308.693 763.984 308.672 764.5C308.672 765.135 308.987 765.549 309.617 765.742C309.742 765.789 310.049 765.891 310.539 766.047C311.029 766.203 311.346 766.305 311.492 766.352C312.539 766.695 313.286 767.122 313.734 767.633C314.188 768.143 314.414 768.854 314.414 769.766C314.414 770.854 314.029 771.693 313.258 772.281C312.487 772.865 311.448 773.156 310.141 773.156ZM320.038 773V763.25H316.702V761.555H325.483V763.25H322.163V773H320.038ZM326.966 773L331.177 761.547H333.481L337.63 773H335.458L334.325 769.766H330.317L329.177 773H326.966ZM330.848 768.188H333.786C332.848 765.182 332.367 763.63 332.341 763.531L330.848 768.188ZM340.316 773V761.523H344.558C345.136 761.523 345.636 761.549 346.058 761.602C346.485 761.654 346.889 761.75 347.269 761.891C347.654 762.026 347.964 762.211 348.198 762.445C348.438 762.68 348.626 762.987 348.761 763.367C348.902 763.742 348.972 764.188 348.972 764.703C348.972 766.224 348.282 767.224 346.902 767.703C347.183 768.021 347.532 768.609 347.948 769.469L349.652 773H347.339L346.003 770.008C345.498 768.935 345.185 768.299 345.066 768.102C344.977 768.096 344.683 768.094 344.183 768.094L342.409 768.078V773H340.316ZM344.745 766.562C345.558 766.562 346.141 766.419 346.495 766.133C346.849 765.841 347.027 765.375 347.027 764.734C347.027 764.172 346.847 763.758 346.488 763.492C346.128 763.227 345.579 763.094 344.839 763.094H342.409V766.555C342.488 766.555 342.876 766.557 343.573 766.562C344.271 766.562 344.662 766.562 344.745 766.562ZM355.072 773V763.25H351.736V761.555H360.517V763.25H357.197V773H355.072ZM367.93 773.164C366.43 773.164 365.292 772.792 364.516 772.047C363.74 771.297 363.352 770.242 363.352 768.883V761.555H365.477V768.703C365.477 769.656 365.669 770.352 366.055 770.789C366.445 771.227 367.083 771.445 367.969 771.445C368.839 771.445 369.469 771.227 369.859 770.789C370.25 770.346 370.445 769.648 370.445 768.695V761.555H372.562V768.898C372.562 770.247 372.167 771.297 371.375 772.047C370.583 772.792 369.435 773.164 367.93 773.164ZM376.475 773V761.523H380.288C381.189 761.523 381.959 761.641 382.6 761.875C383.241 762.104 383.746 762.479 384.116 763C384.491 763.521 384.678 764.174 384.678 764.961C384.678 765.508 384.608 765.995 384.467 766.422C384.327 766.844 384.095 767.229 383.772 767.578C383.449 767.922 382.993 768.188 382.405 768.375C381.821 768.562 381.116 768.656 380.288 768.656C379.579 768.656 379.004 768.635 378.561 768.594V773H376.475ZM380.061 767.125C380.493 767.125 380.868 767.083 381.186 767C381.509 766.917 381.759 766.81 381.936 766.68C382.118 766.549 382.261 766.388 382.366 766.195C382.475 766.003 382.545 765.818 382.577 765.641C382.613 765.458 382.631 765.255 382.631 765.031C382.631 764.401 382.428 763.922 382.022 763.594C381.616 763.266 381.043 763.102 380.303 763.102H378.561V767.109C378.623 767.12 379.123 767.125 380.061 767.125ZM231.205 795V783.555H233.322V788.234H238.494V783.555H240.611V795H238.494V789.906H233.322V795H231.205ZM247.289 792.352C247.857 793.076 248.695 793.438 249.805 793.438C250.914 793.438 251.75 793.078 252.313 792.359C252.88 791.635 253.164 790.615 253.164 789.297C253.164 787.964 252.88 786.93 252.313 786.195C251.75 785.461 250.917 785.094 249.813 785.094C248.703 785.094 247.862 785.464 247.289 786.203C246.721 786.938 246.438 787.969 246.438 789.297C246.438 790.609 246.721 791.628 247.289 792.352ZM249.797 795.164C248.073 795.164 246.711 794.643 245.711 793.602C244.716 792.555 244.219 791.112 244.219 789.273C244.219 787.424 244.719 785.982 245.719 784.945C246.719 783.909 248.081 783.391 249.805 783.391C251.529 783.391 252.888 783.911 253.883 784.953C254.878 785.99 255.375 787.432 255.375 789.281C255.375 791.109 254.875 792.547 253.875 793.594C252.875 794.641 251.516 795.164 249.797 795.164ZM263.452 795.164C261.952 795.164 260.814 794.792 260.038 794.047C259.261 793.297 258.873 792.242 258.873 790.883V783.555H260.998V790.703C260.998 791.656 261.191 792.352 261.577 792.789C261.967 793.227 262.605 793.445 263.491 793.445C264.36 793.445 264.991 793.227 265.381 792.789C265.772 792.346 265.967 791.648 265.967 790.695V783.555H268.084V790.898C268.084 792.247 267.689 793.297 266.897 794.047C266.105 794.792 264.957 795.164 263.452 795.164ZM275.263 795.156C273.882 795.156 272.645 794.839 271.552 794.203L272.067 792.523C272.557 792.794 273.088 793.013 273.661 793.18C274.239 793.346 274.802 793.43 275.348 793.43C276.02 793.43 276.528 793.286 276.872 793C277.216 792.708 277.388 792.292 277.388 791.75C277.388 791.031 276.908 790.534 275.95 790.258C275.882 790.237 275.692 790.182 275.38 790.094C275.067 790 274.773 789.911 274.497 789.828C274.226 789.74 274.031 789.672 273.911 789.625C272.374 789.083 271.606 788.073 271.606 786.594C271.606 785.557 271.973 784.758 272.708 784.195C273.447 783.633 274.427 783.352 275.645 783.352C277.026 783.352 278.216 783.635 279.216 784.203L278.575 785.75C277.554 785.292 276.606 785.062 275.731 785.062C275.101 785.062 274.624 785.174 274.302 785.398C273.984 785.617 273.815 785.984 273.794 786.5C273.794 787.135 274.109 787.549 274.739 787.742C274.864 787.789 275.171 787.891 275.661 788.047C276.151 788.203 276.468 788.305 276.614 788.352C277.661 788.695 278.408 789.122 278.856 789.633C279.309 790.143 279.536 790.854 279.536 791.766C279.536 792.854 279.151 793.693 278.38 794.281C277.609 794.865 276.57 795.156 275.263 795.156ZM282.948 795V783.555H289.886L289.8 785.234H285.066V788.188H289.566V789.867H285.066V793.312H289.972L289.902 795H282.948ZM298.125 795L302.336 783.547H304.641L308.789 795H306.617L305.484 791.766H301.477L300.336 795H298.125ZM302.008 790.188H304.945C304.008 787.182 303.526 785.63 303.5 785.531L302.008 790.188ZM316.506 795.164C314.834 795.164 313.509 794.638 312.53 793.586C311.551 792.534 311.061 791.081 311.061 789.227C311.061 787.466 311.571 786.055 312.592 784.992C313.618 783.924 314.959 783.391 316.616 783.391C317.954 783.391 319.087 783.701 320.014 784.32L319.35 785.922C318.459 785.375 317.564 785.102 316.662 785.102C315.61 785.102 314.777 785.482 314.162 786.242C313.553 786.997 313.248 788.013 313.248 789.289C313.248 790.612 313.543 791.635 314.131 792.359C314.725 793.083 315.569 793.445 316.662 793.445C317.621 793.445 318.571 793.206 319.514 792.727L319.795 794.383C318.92 794.904 317.824 795.164 316.506 795.164ZM322.028 795L326.239 783.547H328.544L332.692 795H330.52L329.388 791.766H325.38L324.239 795H322.028ZM325.911 790.188H328.848C327.911 787.182 327.429 785.63 327.403 785.531L325.911 790.188ZM337.558 793.305H339.073C340.381 793.305 341.376 792.964 342.058 792.281C342.74 791.594 343.081 790.594 343.081 789.281C343.081 787.875 342.73 786.854 342.027 786.219C341.323 785.578 340.264 785.258 338.847 785.258H337.558V793.305ZM335.441 795V783.555H338.753C339.753 783.555 340.649 783.669 341.441 783.898C342.232 784.128 342.912 784.474 343.48 784.938C344.053 785.396 344.49 785.99 344.792 786.719C345.099 787.443 345.253 788.281 345.253 789.234C345.253 791.083 344.696 792.508 343.581 793.508C342.467 794.503 340.922 795 338.948 795H335.441ZM348.861 795V783.555H355.798L355.713 785.234H350.978V788.188H355.478V789.867H350.978V793.312H355.884L355.814 795H348.861ZM359.461 795V783.555H361.961L365.422 791.82L368.906 783.555H371.375V795H369.422V789.344L369.484 786.102L369.195 786.961L366.266 794.219H364.453L361.586 786.922L361.297 786.062L361.367 789.375V795H359.461ZM378.061 795V790.461L374.1 783.555H376.397L379.123 788.508L381.866 783.555H384.131L380.186 790.422V795H378.061Z" fill="#232327"/>
<path d="M39.8328 632.164C38.088 632.164 36.7234 631.638 35.7391 630.586C34.7599 629.534 34.2703 628.094 34.2703 626.266C34.2703 625.104 34.4995 624.083 34.9578 623.203C35.4161 622.318 36.0906 621.628 36.9813 621.133C37.8719 620.638 38.924 620.391 40.1375 620.391C41.5281 620.391 42.7208 620.69 43.7156 621.289L43.0281 622.867C42.0802 622.357 41.1297 622.102 40.1766 622.102C39.0203 622.102 38.1115 622.477 37.45 623.227C36.7885 623.977 36.4578 624.997 36.4578 626.289C36.4578 627.57 36.7521 628.583 37.3406 629.328C37.9292 630.073 38.7911 630.445 39.9266 630.445C40.6557 630.445 41.3172 630.331 41.9109 630.102V627.445H39.5125L39.5281 625.781H43.9031V631.305C43.1948 631.596 42.5229 631.812 41.8875 631.953C41.2573 632.094 40.5724 632.164 39.8328 632.164ZM47.7766 632V620.555H54.7141L54.6281 622.234H49.8938V625.188H54.3938V626.867H49.8938V630.312H54.8L54.7297 632H47.7766ZM60.5875 632V622.25H57.2516V620.555H66.0328V622.25H62.7125V632H60.5875ZM78.0219 632.156C76.6417 632.156 75.4047 631.839 74.3109 631.203L74.8266 629.523C75.3162 629.794 75.8474 630.013 76.4203 630.18C76.9984 630.346 77.5609 630.43 78.1078 630.43C78.7797 630.43 79.2875 630.286 79.6313 630C79.975 629.708 80.1469 629.292 80.1469 628.75C80.1469 628.031 79.6677 627.534 78.7094 627.258C78.6417 627.237 78.4516 627.182 78.1391 627.094C77.8266 627 77.5323 626.911 77.2563 626.828C76.9854 626.74 76.7901 626.672 76.6703 626.625C75.1339 626.083 74.3656 625.073 74.3656 623.594C74.3656 622.557 74.7328 621.758 75.4672 621.195C76.2068 620.633 77.1859 620.352 78.4047 620.352C79.7849 620.352 80.975 620.635 81.975 621.203L81.3344 622.75C80.3135 622.292 79.3656 622.062 78.4906 622.062C77.8604 622.062 77.3839 622.174 77.0609 622.398C76.7432 622.617 76.574 622.984 76.5531 623.5C76.5531 624.135 76.8682 624.549 77.4984 624.742C77.6234 624.789 77.9307 624.891 78.4203 625.047C78.9099 625.203 79.2276 625.305 79.3734 625.352C80.4203 625.695 81.1677 626.122 81.6156 626.633C82.0688 627.143 82.2953 627.854 82.2953 628.766C82.2953 629.854 81.9099 630.693 81.1391 631.281C80.3682 631.865 79.3292 632.156 78.0219 632.156ZM87.9187 632V622.25H84.5828V620.555H93.3641V622.25H90.0437V632H87.9187ZM94.8469 632L99.0578 620.547H101.363L105.511 632H103.339L102.206 628.766H98.1984L97.0578 632H94.8469ZM98.7297 627.188H101.667C100.73 624.182 100.248 622.63 100.222 622.531L98.7297 627.188ZM108.197 632V620.523H112.439C113.017 620.523 113.517 620.549 113.939 620.602C114.366 620.654 114.77 620.75 115.15 620.891C115.535 621.026 115.845 621.211 116.08 621.445C116.319 621.68 116.507 621.987 116.642 622.367C116.783 622.742 116.853 623.188 116.853 623.703C116.853 625.224 116.163 626.224 114.783 626.703C115.064 627.021 115.413 627.609 115.83 628.469L117.533 632H115.22L113.884 629.008C113.379 627.935 113.067 627.299 112.947 627.102C112.858 627.096 112.564 627.094 112.064 627.094L110.291 627.078V632H108.197ZM112.627 625.562C113.439 625.562 114.022 625.419 114.377 625.133C114.731 624.841 114.908 624.375 114.908 623.734C114.908 623.172 114.728 622.758 114.369 622.492C114.009 622.227 113.46 622.094 112.72 622.094H110.291V625.555C110.369 625.555 110.757 625.557 111.455 625.562C112.153 625.562 112.543 625.562 112.627 625.562ZM122.953 632V622.25H119.617V620.555H128.398V622.25H125.078V632H122.953ZM135.811 632.164C134.311 632.164 133.173 631.792 132.397 631.047C131.621 630.297 131.233 629.242 131.233 627.883V620.555H133.358V627.703C133.358 628.656 133.551 629.352 133.936 629.789C134.327 630.227 134.965 630.445 135.85 630.445C136.72 630.445 137.35 630.227 137.741 629.789C138.131 629.346 138.327 628.648 138.327 627.695V620.555H140.444V627.898C140.444 629.247 140.048 630.297 139.256 631.047C138.465 631.792 137.316 632.164 135.811 632.164ZM144.356 632V620.523H148.169C149.07 620.523 149.841 620.641 150.481 620.875C151.122 621.104 151.627 621.479 151.997 622C152.372 622.521 152.559 623.174 152.559 623.961C152.559 624.508 152.489 624.995 152.348 625.422C152.208 625.844 151.976 626.229 151.653 626.578C151.33 626.922 150.874 627.188 150.286 627.375C149.703 627.562 148.997 627.656 148.169 627.656C147.46 627.656 146.885 627.635 146.442 627.594V632H144.356ZM147.942 626.125C148.374 626.125 148.749 626.083 149.067 626C149.39 625.917 149.64 625.81 149.817 625.68C149.999 625.549 150.143 625.388 150.247 625.195C150.356 625.003 150.427 624.818 150.458 624.641C150.494 624.458 150.512 624.255 150.512 624.031C150.512 623.401 150.309 622.922 149.903 622.594C149.497 622.266 148.924 622.102 148.184 622.102H146.442V626.109C146.505 626.12 147.005 626.125 147.942 626.125ZM67.3 654V642.523H71.1125C72.0135 642.523 72.7844 642.641 73.425 642.875C74.0656 643.104 74.5708 643.479 74.9406 644C75.3156 644.521 75.5031 645.174 75.5031 645.961C75.5031 646.508 75.4328 646.995 75.2922 647.422C75.1516 647.844 74.9198 648.229 74.5969 648.578C74.274 648.922 73.8182 649.188 73.2297 649.375C72.6464 649.562 71.9406 649.656 71.1125 649.656C70.4042 649.656 69.8286 649.635 69.3859 649.594V654H67.3ZM70.8859 648.125C71.3182 648.125 71.6932 648.083 72.0109 648C72.3339 647.917 72.5839 647.81 72.7609 647.68C72.9432 647.549 73.0865 647.388 73.1906 647.195C73.3 647.003 73.3703 646.818 73.4016 646.641C73.438 646.458 73.4562 646.255 73.4562 646.031C73.4562 645.401 73.2531 644.922 72.8469 644.594C72.4406 644.266 71.8677 644.102 71.1281 644.102H69.3859V648.109C69.4484 648.12 69.9484 648.125 70.8859 648.125ZM78.6891 654V642.555H85.6266L85.5406 644.234H80.8063V647.188H85.3063V648.867H80.8063V652.312H85.7125L85.6422 654H78.6891ZM89.2344 654V642.523H93.4766C94.0547 642.523 94.5547 642.549 94.9766 642.602C95.4036 642.654 95.8073 642.75 96.1875 642.891C96.5729 643.026 96.8828 643.211 97.1172 643.445C97.3568 643.68 97.5443 643.987 97.6797 644.367C97.8203 644.742 97.8906 645.188 97.8906 645.703C97.8906 647.224 97.2005 648.224 95.8203 648.703C96.1016 649.021 96.4505 649.609 96.8672 650.469L98.5703 654H96.2578L94.9219 651.008C94.4167 649.935 94.1042 649.299 93.9844 649.102C93.8958 649.096 93.6016 649.094 93.1016 649.094L91.3281 649.078V654H89.2344ZM93.6641 647.562C94.4766 647.562 95.0599 647.419 95.4141 647.133C95.7682 646.841 95.9453 646.375 95.9453 645.734C95.9453 645.172 95.7656 644.758 95.4062 644.492C95.0469 644.227 94.4974 644.094 93.7578 644.094H91.3281V647.555C91.4062 647.555 91.7943 647.557 92.4922 647.562C93.1901 647.562 93.5807 647.562 93.6641 647.562ZM101.678 654V642.555H103.803V647.711C104.173 647.221 104.928 646.307 106.069 644.969C107.215 643.63 107.897 642.826 108.116 642.555H110.623L106.295 647.703L110.897 654H108.412L104.678 648.867L103.803 649.602V654H101.678ZM117.028 654.156C115.648 654.156 114.411 653.839 113.317 653.203L113.833 651.523C114.322 651.794 114.854 652.013 115.427 652.18C116.005 652.346 116.567 652.43 117.114 652.43C117.786 652.43 118.294 652.286 118.637 652C118.981 651.708 119.153 651.292 119.153 650.75C119.153 650.031 118.674 649.534 117.716 649.258C117.648 649.237 117.458 649.182 117.145 649.094C116.833 649 116.539 648.911 116.262 648.828C115.992 648.74 115.796 648.672 115.677 648.625C114.14 648.083 113.372 647.073 113.372 645.594C113.372 644.557 113.739 643.758 114.473 643.195C115.213 642.633 116.192 642.352 117.411 642.352C118.791 642.352 119.981 642.635 120.981 643.203L120.341 644.75C119.32 644.292 118.372 644.062 117.497 644.062C116.867 644.062 116.39 644.174 116.067 644.398C115.749 644.617 115.58 644.984 115.559 645.5C115.559 646.135 115.874 646.549 116.505 646.742C116.63 646.789 116.937 646.891 117.427 647.047C117.916 647.203 118.234 647.305 118.38 647.352C119.427 647.695 120.174 648.122 120.622 648.633C121.075 649.143 121.302 649.854 121.302 650.766C121.302 651.854 120.916 652.693 120.145 653.281C119.374 653.865 118.335 654.156 117.028 654.156Z" fill="#232327"/>
<path d="M8.87813 133V121.555H15.6516L15.5734 123.234H10.9797V126.484H15.3469V128.148H10.9797V133H8.87813ZM23.5719 133.164C22.0719 133.164 20.9339 132.792 20.1578 132.047C19.3818 131.297 18.9938 130.242 18.9938 128.883V121.555H21.1188V128.703C21.1188 129.656 21.3115 130.352 21.6969 130.789C22.0875 131.227 22.7255 131.445 23.6109 131.445C24.4807 131.445 25.1109 131.227 25.5016 130.789C25.8922 130.346 26.0875 129.648 26.0875 128.695V121.555H28.2047V128.898C28.2047 130.247 27.8089 131.297 27.0172 132.047C26.2255 132.792 25.0771 133.164 23.5719 133.164ZM32.1719 133V121.555H34.4219C34.8281 122.19 35.6536 123.471 36.8984 125.398C38.1432 127.326 38.901 128.497 39.1719 128.914C39.25 129.034 39.3828 129.237 39.5703 129.523C39.763 129.805 39.8984 130.005 39.9766 130.125C39.9401 128.339 39.9219 127.411 39.9219 127.344V121.555H41.8516V133H39.5703L34.4063 124.953L34.0313 124.336C34.0729 125.711 34.0938 126.677 34.0938 127.234V133H32.1719ZM48.0375 131.305H49.5531C50.8604 131.305 51.8552 130.964 52.5375 130.281C53.2198 129.594 53.5609 128.594 53.5609 127.281C53.5609 125.875 53.2094 124.854 52.5063 124.219C51.8031 123.578 50.7432 123.258 49.3266 123.258H48.0375V131.305ZM45.9203 133V121.555H49.2328C50.2328 121.555 51.1286 121.669 51.9203 121.898C52.712 122.128 53.3917 122.474 53.9594 122.938C54.5323 123.396 54.9698 123.99 55.2719 124.719C55.5792 125.443 55.7328 126.281 55.7328 127.234C55.7328 129.083 55.1755 130.508 54.0609 131.508C52.9464 132.503 51.4021 133 49.4281 133H45.9203ZM59.2859 133V121.523H63.5281C64.1063 121.523 64.6063 121.549 65.0281 121.602C65.4552 121.654 65.8589 121.75 66.2391 121.891C66.6245 122.026 66.9344 122.211 67.1688 122.445C67.4083 122.68 67.5958 122.987 67.7313 123.367C67.8719 123.742 67.9422 124.188 67.9422 124.703C67.9422 126.224 67.2521 127.224 65.8719 127.703C66.1531 128.021 66.5021 128.609 66.9188 129.469L68.6219 133H66.3094L64.9734 130.008C64.4682 128.935 64.1557 128.299 64.0359 128.102C63.9474 128.096 63.6531 128.094 63.1531 128.094L61.3797 128.078V133H59.2859ZM63.7156 126.562C64.5281 126.562 65.1115 126.419 65.4656 126.133C65.8198 125.841 65.9969 125.375 65.9969 124.734C65.9969 124.172 65.8172 123.758 65.4578 123.492C65.0984 123.227 64.549 123.094 63.8094 123.094H61.3797V126.555C61.4578 126.555 61.8458 126.557 62.5438 126.562C63.2417 126.562 63.6323 126.562 63.7156 126.562ZM70.5734 133L74.7844 121.547H77.0891L81.2375 133H79.0656L77.9328 129.766H73.925L72.7844 133H70.5734ZM74.4563 128.188H77.3938C76.4563 125.182 75.9745 123.63 75.9484 123.531L74.4563 128.188ZM84.1109 133V121.555H86.2281V133H84.1109ZM93.5703 133.156C92.1901 133.156 90.9531 132.839 89.8594 132.203L90.375 130.523C90.8646 130.794 91.3958 131.013 91.9688 131.18C92.5469 131.346 93.1094 131.43 93.6562 131.43C94.3281 131.43 94.8359 131.286 95.1797 131C95.5234 130.708 95.6953 130.292 95.6953 129.75C95.6953 129.031 95.2161 128.534 94.2578 128.258C94.1901 128.237 94 128.182 93.6875 128.094C93.375 128 93.0807 127.911 92.8047 127.828C92.5339 127.74 92.3385 127.672 92.2188 127.625C90.6823 127.083 89.9141 126.073 89.9141 124.594C89.9141 123.557 90.2812 122.758 91.0156 122.195C91.7552 121.633 92.7344 121.352 93.9531 121.352C95.3333 121.352 96.5234 121.635 97.5234 122.203L96.8828 123.75C95.862 123.292 94.9141 123.062 94.0391 123.062C93.4089 123.062 92.9323 123.174 92.6094 123.398C92.2917 123.617 92.1224 123.984 92.1016 124.5C92.1016 125.135 92.4167 125.549 93.0469 125.742C93.1719 125.789 93.4792 125.891 93.9688 126.047C94.4583 126.203 94.776 126.305 94.9219 126.352C95.9688 126.695 96.7161 127.122 97.1641 127.633C97.6172 128.143 97.8438 128.854 97.8438 129.766C97.8438 130.854 97.4583 131.693 96.6875 132.281C95.9167 132.865 94.8776 133.156 93.5703 133.156ZM101.256 133V121.555H108.194L108.108 123.234H103.373V126.188H107.873V127.867H103.373V131.312H108.28L108.209 133H101.256ZM119.644 133L116.534 121.555H118.644L120.863 130.461L123.472 121.609H125.495L127.972 130.492L130.238 121.555H132.347L129.144 133H126.948L124.503 124.617L121.823 133H119.644ZM135.377 133V121.555H137.494V133H135.377ZM143.836 133V123.25H140.5V121.555H149.281V123.25H145.961V133H143.836ZM152.116 133V121.555H154.233V126.234H159.405V121.555H161.522V133H159.405V127.906H154.233V133H152.116ZM9.72969 153.305H11.2453C12.5526 153.305 13.5474 152.964 14.2297 152.281C14.912 151.594 15.2531 150.594 15.2531 149.281C15.2531 147.875 14.9016 146.854 14.1984 146.219C13.4953 145.578 12.4354 145.258 11.0188 145.258H9.72969V153.305ZM7.6125 155V143.555H10.925C11.925 143.555 12.8208 143.669 13.6125 143.898C14.4042 144.128 15.0839 144.474 15.6516 144.938C16.2245 145.396 16.662 145.99 16.9641 146.719C17.2714 147.443 17.425 148.281 17.425 149.234C17.425 151.083 16.8677 152.508 15.7531 153.508C14.6385 154.503 13.0943 155 11.1203 155H7.6125ZM20.9781 155V143.523H25.2203C25.7984 143.523 26.2984 143.549 26.7203 143.602C27.1474 143.654 27.551 143.75 27.9313 143.891C28.3167 144.026 28.6266 144.211 28.8609 144.445C29.1005 144.68 29.288 144.987 29.4234 145.367C29.5641 145.742 29.6344 146.188 29.6344 146.703C29.6344 148.224 28.9443 149.224 27.5641 149.703C27.8453 150.021 28.1943 150.609 28.6109 151.469L30.3141 155H28.0016L26.6656 152.008C26.1604 150.935 25.8479 150.299 25.7281 150.102C25.6396 150.096 25.3453 150.094 24.8453 150.094L23.0719 150.078V155H20.9781ZM25.4078 148.562C26.2203 148.562 26.8036 148.419 27.1578 148.133C27.512 147.841 27.6891 147.375 27.6891 146.734C27.6891 146.172 27.5094 145.758 27.15 145.492C26.7906 145.227 26.2411 145.094 25.5016 145.094H23.0719V148.555C23.15 148.555 23.538 148.557 24.2359 148.562C24.9339 148.562 25.3245 148.562 25.4078 148.562ZM32.2656 155L36.4766 143.547H38.7813L42.9297 155H40.7578L39.625 151.766H35.6172L34.4766 155H32.2656ZM36.1484 150.188H39.0859C38.1484 147.182 37.6667 145.63 37.6406 145.531L36.1484 150.188ZM45.6156 155V143.523H49.4281C50.3292 143.523 51.1 143.641 51.7406 143.875C52.3813 144.104 52.8865 144.479 53.2563 145C53.6313 145.521 53.8188 146.174 53.8188 146.961C53.8188 147.508 53.7484 147.995 53.6078 148.422C53.4672 148.844 53.2354 149.229 52.9125 149.578C52.5896 149.922 52.1339 150.188 51.5453 150.375C50.962 150.562 50.2563 150.656 49.4281 150.656C48.7198 150.656 48.1443 150.635 47.7016 150.594V155H45.6156ZM49.2016 149.125C49.6339 149.125 50.0089 149.083 50.3266 149C50.6495 148.917 50.8995 148.81 51.0766 148.68C51.2589 148.549 51.4021 148.388 51.5063 148.195C51.6156 148.003 51.6859 147.818 51.7172 147.641C51.7536 147.458 51.7719 147.255 51.7719 147.031C51.7719 146.401 51.5688 145.922 51.1625 145.594C50.7563 145.266 50.1833 145.102 49.4438 145.102H47.7016V149.109C47.7641 149.12 48.2641 149.125 49.2016 149.125ZM57.0047 155V143.555H63.9422L63.8563 145.234H59.1219V148.188H63.6219V149.867H59.1219V153.312H64.0281L63.9578 155H57.0047ZM67.55 155V143.523H71.7922C72.3703 143.523 72.8703 143.549 73.2922 143.602C73.7193 143.654 74.1229 143.75 74.5031 143.891C74.8885 144.026 75.1984 144.211 75.4328 144.445C75.6724 144.68 75.8599 144.987 75.9953 145.367C76.1359 145.742 76.2063 146.188 76.2063 146.703C76.2063 148.224 75.5161 149.224 74.1359 149.703C74.4172 150.021 74.7661 150.609 75.1828 151.469L76.8859 155H74.5734L73.2375 152.008C72.7323 150.935 72.4198 150.299 72.3 150.102C72.2115 150.096 71.9172 150.094 71.4172 150.094L69.6438 150.078V155H67.55ZM71.9797 148.562C72.7922 148.562 73.3755 148.419 73.7297 148.133C74.0839 147.841 74.2609 147.375 74.2609 146.734C74.2609 146.172 74.0813 145.758 73.7219 145.492C73.3625 145.227 72.813 145.094 72.0734 145.094H69.6438V148.555C69.7219 148.555 70.1099 148.557 70.8078 148.562C71.5057 148.562 71.8964 148.562 71.9797 148.562ZM89.1406 155.156C87.7604 155.156 86.5234 154.839 85.4297 154.203L85.9453 152.523C86.4349 152.794 86.9661 153.013 87.5391 153.18C88.1172 153.346 88.6797 153.43 89.2266 153.43C89.8984 153.43 90.4062 153.286 90.75 153C91.0938 152.708 91.2656 152.292 91.2656 151.75C91.2656 151.031 90.7865 150.534 89.8281 150.258C89.7604 150.237 89.5703 150.182 89.2578 150.094C88.9453 150 88.651 149.911 88.375 149.828C88.1042 149.74 87.9089 149.672 87.7891 149.625C86.2526 149.083 85.4844 148.073 85.4844 146.594C85.4844 145.557 85.8516 144.758 86.5859 144.195C87.3255 143.633 88.3047 143.352 89.5234 143.352C90.9036 143.352 92.0938 143.635 93.0938 144.203L92.4531 145.75C91.4323 145.292 90.4844 145.062 89.6094 145.062C88.9792 145.062 88.5026 145.174 88.1797 145.398C87.862 145.617 87.6927 145.984 87.6719 146.5C87.6719 147.135 87.987 147.549 88.6172 147.742C88.7422 147.789 89.0495 147.891 89.5391 148.047C90.0286 148.203 90.3464 148.305 90.4922 148.352C91.5391 148.695 92.2865 149.122 92.7344 149.633C93.1875 150.143 93.4141 150.854 93.4141 151.766C93.4141 152.854 93.0286 153.693 92.2578 154.281C91.487 154.865 90.4479 155.156 89.1406 155.156ZM99.0375 155V145.25H95.7016V143.555H104.483V145.25H101.163V155H99.0375ZM105.966 155L110.177 143.547H112.481L116.63 155H114.458L113.325 151.766H109.317L108.177 155H105.966ZM109.848 150.188H112.786C111.848 147.182 111.367 145.63 111.341 145.531L109.848 150.188ZM119.316 155V143.523H123.558C124.136 143.523 124.636 143.549 125.058 143.602C125.485 143.654 125.889 143.75 126.269 143.891C126.654 144.026 126.964 144.211 127.198 144.445C127.438 144.68 127.626 144.987 127.761 145.367C127.902 145.742 127.972 146.188 127.972 146.703C127.972 148.224 127.282 149.224 125.902 149.703C126.183 150.021 126.532 150.609 126.948 151.469L128.652 155H126.339L125.003 152.008C124.498 150.935 124.185 150.299 124.066 150.102C123.977 150.096 123.683 150.094 123.183 150.094L121.409 150.078V155H119.316ZM123.745 148.562C124.558 148.562 125.141 148.419 125.495 148.133C125.849 147.841 126.027 147.375 126.027 146.734C126.027 146.172 125.847 145.758 125.488 145.492C125.128 145.227 124.579 145.094 123.839 145.094H121.409V148.555C121.488 148.555 121.876 148.557 122.573 148.562C123.271 148.562 123.662 148.562 123.745 148.562ZM134.072 155V145.25H130.736V143.555H139.517V145.25H136.197V155H134.072ZM146.93 155.164C145.43 155.164 144.292 154.792 143.516 154.047C142.74 153.297 142.352 152.242 142.352 150.883V143.555H144.477V150.703C144.477 151.656 144.669 152.352 145.055 152.789C145.445 153.227 146.083 153.445 146.969 153.445C147.839 153.445 148.469 153.227 148.859 152.789C149.25 152.346 149.445 151.648 149.445 150.695V143.555H151.562V150.898C151.562 152.247 151.167 153.297 150.375 154.047C149.583 154.792 148.435 155.164 146.93 155.164ZM155.475 155V143.523H159.288C160.189 143.523 160.959 143.641 161.6 143.875C162.241 144.104 162.746 144.479 163.116 145C163.491 145.521 163.678 146.174 163.678 146.961C163.678 147.508 163.608 147.995 163.467 148.422C163.327 148.844 163.095 149.229 162.772 149.578C162.449 149.922 161.993 150.188 161.405 150.375C160.821 150.562 160.116 150.656 159.288 150.656C158.579 150.656 158.004 150.635 157.561 150.594V155H155.475ZM159.061 149.125C159.493 149.125 159.868 149.083 160.186 149C160.509 148.917 160.759 148.81 160.936 148.68C161.118 148.549 161.261 148.388 161.366 148.195C161.475 148.003 161.545 147.818 161.577 147.641C161.613 147.458 161.631 147.255 161.631 147.031C161.631 146.401 161.428 145.922 161.022 145.594C160.616 145.266 160.043 145.102 159.303 145.102H157.561V149.109C157.623 149.12 158.123 149.125 159.061 149.125ZM7.07656 177V165.555H9.19375V170.234H14.3656V165.555H16.4828V177H14.3656V171.906H9.19375V177H7.07656ZM23.1609 174.352C23.7286 175.076 24.5672 175.438 25.6766 175.438C26.7859 175.438 27.6219 175.078 28.1844 174.359C28.7521 173.635 29.0359 172.615 29.0359 171.297C29.0359 169.964 28.7521 168.93 28.1844 168.195C27.6219 167.461 26.7885 167.094 25.6844 167.094C24.575 167.094 23.7339 167.464 23.1609 168.203C22.5932 168.938 22.3094 169.969 22.3094 171.297C22.3094 172.609 22.5932 173.628 23.1609 174.352ZM25.6687 177.164C23.9448 177.164 22.5828 176.643 21.5828 175.602C20.588 174.555 20.0906 173.112 20.0906 171.273C20.0906 169.424 20.5906 167.982 21.5906 166.945C22.5906 165.909 23.9526 165.391 25.6766 165.391C27.4005 165.391 28.7599 165.911 29.7547 166.953C30.7495 167.99 31.2469 169.432 31.2469 171.281C31.2469 173.109 30.7469 174.547 29.7469 175.594C28.7469 176.641 27.3875 177.164 25.6687 177.164ZM39.3234 177.164C37.8234 177.164 36.6854 176.792 35.9094 176.047C35.1333 175.297 34.7453 174.242 34.7453 172.883V165.555H36.8703V172.703C36.8703 173.656 37.063 174.352 37.4484 174.789C37.8391 175.227 38.4771 175.445 39.3625 175.445C40.2323 175.445 40.8625 175.227 41.2531 174.789C41.6437 174.346 41.8391 173.648 41.8391 172.695V165.555H43.9562V172.898C43.9562 174.247 43.5604 175.297 42.7687 176.047C41.9771 176.792 40.8286 177.164 39.3234 177.164ZM51.1344 177.156C49.7542 177.156 48.5172 176.839 47.4234 176.203L47.9391 174.523C48.4286 174.794 48.9599 175.013 49.5328 175.18C50.1109 175.346 50.6734 175.43 51.2203 175.43C51.8922 175.43 52.4 175.286 52.7437 175C53.0875 174.708 53.2594 174.292 53.2594 173.75C53.2594 173.031 52.7802 172.534 51.8219 172.258C51.7542 172.237 51.5641 172.182 51.2516 172.094C50.9391 172 50.6448 171.911 50.3687 171.828C50.0979 171.74 49.9026 171.672 49.7828 171.625C48.2464 171.083 47.4781 170.073 47.4781 168.594C47.4781 167.557 47.8453 166.758 48.5797 166.195C49.3193 165.633 50.2984 165.352 51.5172 165.352C52.8974 165.352 54.0875 165.635 55.0875 166.203L54.4469 167.75C53.426 167.292 52.4781 167.062 51.6031 167.062C50.9729 167.062 50.4964 167.174 50.1734 167.398C49.8557 167.617 49.6865 167.984 49.6656 168.5C49.6656 169.135 49.9807 169.549 50.6109 169.742C50.7359 169.789 51.0432 169.891 51.5328 170.047C52.0224 170.203 52.3401 170.305 52.4859 170.352C53.5328 170.695 54.2802 171.122 54.7281 171.633C55.1812 172.143 55.4078 172.854 55.4078 173.766C55.4078 174.854 55.0224 175.693 54.2516 176.281C53.4807 176.865 52.4417 177.156 51.1344 177.156ZM58.8203 177V165.555H65.7578L65.6719 167.234H60.9375V170.188H65.4375V171.867H60.9375V175.312H65.8438L65.7734 177H58.8203ZM78.1375 177L73.9734 165.555H76.1531L78.575 172.625C78.6687 172.87 78.8849 173.586 79.2234 174.773C79.2443 174.69 79.3406 174.349 79.5125 173.75C79.6844 173.146 79.7964 172.776 79.8484 172.641C79.9109 172.464 80.3068 171.289 81.0359 169.117C81.7651 166.94 82.1635 165.753 82.2312 165.555H84.3875L80.2781 177H78.1375ZM87.0891 177V165.555H94.0266L93.9406 167.234H89.2062V170.188H93.7062V171.867H89.2062V175.312H94.1125L94.0422 177H87.0891ZM97.6891 177V165.555H99.9391C100.345 166.19 101.171 167.471 102.416 169.398C103.66 171.326 104.418 172.497 104.689 172.914C104.767 173.034 104.9 173.237 105.088 173.523C105.28 173.805 105.416 174.005 105.494 174.125C105.457 172.339 105.439 171.411 105.439 171.344V165.555H107.369V177H105.088L99.9234 168.953L99.5484 168.336C99.5901 169.711 99.6109 170.677 99.6109 171.234V177H97.6891ZM113.641 177V167.25H110.305V165.555H119.086V167.25H115.766V177H113.641ZM126.498 177.164C124.998 177.164 123.86 176.792 123.084 176.047C122.308 175.297 121.92 174.242 121.92 172.883V165.555H124.045V172.703C124.045 173.656 124.238 174.352 124.623 174.789C125.014 175.227 125.652 175.445 126.537 175.445C127.407 175.445 128.037 175.227 128.428 174.789C128.819 174.346 129.014 173.648 129.014 172.695V165.555H131.131V172.898C131.131 174.247 130.735 175.297 129.944 176.047C129.152 176.792 128.004 177.164 126.498 177.164ZM135.044 177V165.523H139.286C139.864 165.523 140.364 165.549 140.786 165.602C141.213 165.654 141.617 165.75 141.997 165.891C142.382 166.026 142.692 166.211 142.927 166.445C143.166 166.68 143.354 166.987 143.489 167.367C143.63 167.742 143.7 168.188 143.7 168.703C143.7 170.224 143.01 171.224 141.63 171.703C141.911 172.021 142.26 172.609 142.677 173.469L144.38 177H142.067L140.731 174.008C140.226 172.935 139.914 172.299 139.794 172.102C139.705 172.096 139.411 172.094 138.911 172.094L137.138 172.078V177H135.044ZM139.473 170.562C140.286 170.562 140.869 170.419 141.223 170.133C141.578 169.841 141.755 169.375 141.755 168.734C141.755 168.172 141.575 167.758 141.216 167.492C140.856 167.227 140.307 167.094 139.567 167.094H137.138V170.555C137.216 170.555 137.604 170.557 138.302 170.562C138.999 170.562 139.39 170.562 139.473 170.562ZM147.495 177V165.555H154.433L154.347 167.234H149.612V170.188H154.112V171.867H149.612V175.312H154.519L154.448 177H147.495ZM161.306 177.156C159.926 177.156 158.689 176.839 157.595 176.203L158.111 174.523C158.601 174.794 159.132 175.013 159.705 175.18C160.283 175.346 160.845 175.43 161.392 175.43C162.064 175.43 162.572 175.286 162.916 175C163.259 174.708 163.431 174.292 163.431 173.75C163.431 173.031 162.952 172.534 161.994 172.258C161.926 172.237 161.736 172.182 161.423 172.094C161.111 172 160.817 171.911 160.541 171.828C160.27 171.74 160.074 171.672 159.955 171.625C158.418 171.083 157.65 170.073 157.65 168.594C157.65 167.557 158.017 166.758 158.752 166.195C159.491 165.633 160.47 165.352 161.689 165.352C163.069 165.352 164.259 165.635 165.259 166.203L164.619 167.75C163.598 167.292 162.65 167.062 161.775 167.062C161.145 167.062 160.668 167.174 160.345 167.398C160.028 167.617 159.858 167.984 159.837 168.5C159.837 169.135 160.153 169.549 160.783 169.742C160.908 169.789 161.215 169.891 161.705 170.047C162.194 170.203 162.512 170.305 162.658 170.352C163.705 170.695 164.452 171.122 164.9 171.633C165.353 172.143 165.58 172.854 165.58 173.766C165.58 174.854 165.194 175.693 164.423 176.281C163.653 176.865 162.614 177.156 161.306 177.156Z" fill="#232327"/>
</svg>
