<svg width="16" height="16" viewBox="0 0 16 16" fill="none" xmlns="http://www.w3.org/2000/svg">
<path d="M16 3.53911C15.3981 3.80161 14.7616 3.97607 14.11 4.05711C14.7967 3.64974 15.3101 3.00468 15.553 2.24411C14.91 2.62545 14.2065 2.89399 13.473 3.03811C13.0232 2.55789 12.4395 2.22403 11.7975 2.07991C11.1555 1.93578 10.485 1.98806 9.87318 2.22994C9.2613 2.47182 8.73632 2.89212 8.36642 3.43625C7.99653 3.98037 7.79883 4.62316 7.799 5.28111C7.799 5.54111 7.821 5.79111 7.875 6.02911C6.57008 5.96513 5.29336 5.62646 4.1283 5.03523C2.96325 4.444 1.93609 3.61353 1.114 2.59811C0.692819 3.31997 0.562609 4.17522 0.749883 4.98971C0.937158 5.80421 1.42783 6.5167 2.122 6.98211C1.60276 6.96819 1.09447 6.82963 0.64 6.57811V6.61411C0.64087 7.37154 0.902665 8.10555 1.38132 8.69257C1.85997 9.27959 2.52625 9.68379 3.268 9.83711C2.98739 9.91107 2.69819 9.94738 2.408 9.94511C2.19959 9.94882 1.99139 9.93004 1.787 9.88911C1.99894 10.5401 2.40749 11.1095 2.95639 11.5187C3.5053 11.9279 4.16756 12.1569 4.852 12.1741C3.69094 13.0822 2.25897 13.5747 0.785 13.5731C0.516 13.5731 0.258 13.5611 0 13.5281C1.49988 14.4947 3.24768 15.0059 5.032 15.0001C11.068 15.0001 14.368 10.0001 14.368 5.66611C14.368 5.52111 14.363 5.38111 14.356 5.24211C15.003 4.7791 15.5601 4.20199 16 3.53911Z" fill="#03A9F4"/>
</svg>
